<?xml version="1.0" standalone="yes"?>

<svg version="1.1" viewBox="0.0 0.0 758.8740157480315 524.8608923884515" fill="none" stroke="none" stroke-linecap="square" stroke-miterlimit="10" xmlns="http://www.w3.org/2000/svg" xmlns:xlink="http://www.w3.org/1999/xlink"><clipPath id="p.0"><path d="m0 0l758.874 0l0 524.8609l-758.874 0l0 -524.8609z" clip-rule="nonzero"></path></clipPath><g clip-path="url(#p.0)"><path fill="#000000" fill-opacity="0.0" d="m0 0l758.874 0l0 524.8609l-758.874 0z" fill-rule="evenodd"></path><path fill="#000000" fill-opacity="0.0" d="m96.0 121.91207l464.0 0l0 288.0l-464.0 0z" fill-rule="evenodd"></path><path stroke="#e06666" stroke-width="4.0" stroke-linejoin="round" stroke-linecap="butt" d="m96.0 121.91207l464.0 0l0 288.0l-464.0 0z" fill-rule="evenodd"></path><path fill="#d9ead3" d="m240.0 257.91208l176.0 0l0 64.0l-176.0 0z" fill-rule="evenodd"></path><path stroke="#93c47d" stroke-width="4.0" stroke-linejoin="round" stroke-linecap="butt" d="m240.0 257.91208l176.0 0l0 64.0l-176.0 0z" fill-rule="evenodd"></path><path fill="#000000" d="m309.08002 304.87457q-3.875 0 -6.765625 -1.78125q-2.875 -1.78125 -4.453125 -5.078125q-1.578125 -3.296875 -1.578125 -7.703125q0 -4.359375 1.609375 -7.65625q1.625 -3.296875 4.5 -5.09375q2.890625 -1.8125 6.53125 -1.8125q3.203125 0 6.078125 1.203125l-0.40625 3.40625q-2.5625 -1.28125 -4.953125 -1.28125q-2.96875 0 -5.0625 1.484375q-2.09375 1.46875 -3.1875 4.03125q-1.078125 2.5625 -1.078125 5.71875q0 3.15625 1.078125 5.71875q1.09375 2.5625 3.1875 4.046875q2.09375 1.46875 5.09375 1.46875q2.609375 0 4.921875 -1.1875l0.40625 3.390625q-2.5625 1.125 -5.921875 1.125zm9.913116 -28.5625l7.203125 0q4.40625 0 6.859375 2.328125q2.46875 2.3125 2.46875 6.75q0 4.4375 -2.46875 6.78125q-2.453125 2.34375 -6.859375 2.34375l-3.515625 0l0 9.796875l-3.6875 0l0 -28.0zm6.890625 14.84375q5.84375 0 5.84375 -5.765625q0 -5.765625 -5.84375 -5.765625l-3.203125 0l0 11.53125l3.203125 0zm22.668732 13.71875q-5.078125 0 -7.515625 -3.03125q-2.4375 -3.046875 -2.4375 -8.609375l0 -16.921875l3.640625 0l0 15.875q0 2.921875 0.453125 4.921875q0.46875 2.0 1.859375 3.21875q1.40625 1.21875 4.0 1.21875q2.640625 0 4.046875 -1.21875q1.40625 -1.21875 1.859375 -3.21875q0.46875 -2.0 0.46875 -4.921875l0 -15.875l3.625 0l0 16.921875q0 5.59375 -2.4375 8.625q-2.4375 3.015625 -7.5625 3.015625z" fill-rule="nonzero"></path><path fill="#d9ead3" d="m160.0 209.91208l32.0 0l0 168.0l-32.0 0z" fill-rule="evenodd"></path><path stroke="#93c47d" stroke-width="4.0" stroke-linejoin="round" stroke-linecap="butt" d="m160.0 209.91208l32.0 0l0 168.0l-32.0 0z" fill-rule="evenodd"></path><path fill="#d9ead3" d="m464.0 209.91208l32.0 0l0 168.0l-32.0 0z" fill-rule="evenodd"></path><path stroke="#93c47d" stroke-width="4.0" stroke-linejoin="round" stroke-linecap="butt" d="m464.0 209.91208l32.0 0l0 168.0l-32.0 0z" fill-rule="evenodd"></path><defs><linearGradient id="p.1" gradientUnits="userSpaceOnUse" gradientTransform="matrix(7.483321623892837 0.0 0.0 7.483321623892837 0.0 0.0)" spreadMethod="pad" x1="26.726099725747137" y1="34.860845369264645" x2="26.726072324480196" y2="42.344166993107315"><stop offset="0.0" stop-color="#fdecdb"></stop><stop offset="1.0" stop-color="#f0a963"></stop></linearGradient></defs><path fill="url(#p.1)" d="m200.0 274.87503l16.0 0l0 -14.0l16.0 28.0l-16.0 28.0l0 -14.0l-16.0 0z" fill-rule="evenodd"></path><defs><linearGradient id="p.2" gradientUnits="userSpaceOnUse" gradientTransform="matrix(7.483322993956059 0.0 0.0 7.483322993956059 0.0 0.0)" spreadMethod="pad" x1="56.659321045269" y1="34.46489623227828" x2="56.65929364400708" y2="41.948219226184165"><stop offset="0.0" stop-color="#d4e5f5"></stop><stop offset="1.0" stop-color="#70a4d5"></stop></linearGradient></defs><path fill="url(#p.2)" d="m424.0 271.91208l16.0 0l0 -14.0l16.0 28.0l-16.0 28.0l0 -14.0l-16.0 0z" fill-rule="evenodd"></path><path fill="#000000" fill-opacity="0.0" d="m64.0 169.91208l224.0 0l0 32.0l-224.0 0z" fill-rule="evenodd"></path><path fill="#000000" d="m143.12192 172.31207l7.203125 0q4.390625 0 6.84375 2.1875q2.46875 2.171875 2.46875 6.375q0 2.390625 -1.140625 4.34375q-1.140625 1.9375 -3.171875 3.046875l5.59375 12.046875l-4.3125 0l-5.0 -10.953125q-0.640625 0.078125 -1.328125 0.078125l-3.515625 0l0 10.875l-3.640625 0l0 -28.0zm6.875 13.765625q3.046875 0 4.4375 -1.3125q1.40625 -1.328125 1.40625 -3.890625q0 -2.609375 -1.40625 -3.921875q-1.390625 -1.328125 -4.4375 -1.328125l-3.234375 0l0 10.453125l3.234375 0zm26.99936 6.640625l-8.671875 0l-2.25 7.59375l-3.921875 0l8.609375 -28.0l3.765625 0l8.59375 28.0l-3.875 0l-2.25 -7.59375zm-1.0 -3.40625l-3.359375 -11.359375l-3.3125 11.359375l6.671875 0zm30.443726 11.0l-1.84375 -20.234375l-6.75 14.4375l-6.765625 -14.4375l-1.875 20.234375l-3.890625 0l3.046875 -28.0l3.078125 0l6.40625 14.4375l6.390625 -14.4375l3.078125 0l3.046875 28.0l-3.921875 0z" fill-rule="nonzero"></path><path fill="#000000" fill-opacity="0.0" d="m368.0 169.91208l224.0 0l0 32.0l-224.0 0z" fill-rule="evenodd"></path><path fill="#000000" d="m447.12192 172.31207l7.203125 0q4.390625 0 6.84375 2.1875q2.46875 2.171875 2.46875 6.375q0 2.390625 -1.140625 4.34375q-1.140625 1.9375 -3.171875 3.046875l5.59375 12.046875l-4.3125 0l-5.0 -10.953125q-0.640625 0.078125 -1.328125 0.078125l-3.515625 0l0 10.875l-3.640625 0l0 -28.0zm6.875 13.765625q3.046875 0 4.4375 -1.3125q1.40625 -1.328125 1.40625 -3.890625q0 -2.609375 -1.40625 -3.921875q-1.390625 -1.328125 -4.4375 -1.328125l-3.234375 0l0 10.453125l3.234375 0zm26.99936 6.640625l-8.671875 0l-2.25 7.59375l-3.921875 0l8.609375 -28.0l3.765625 0l8.59375 28.0l-3.875 0l-2.25 -7.59375zm-1.0 -3.40625l-3.359375 -11.359375l-3.3125 11.359375l6.671875 0zm30.443726 11.0l-1.84375 -20.234375l-6.75 14.4375l-6.765625 -14.4375l-1.875 20.234375l-3.890625 0l3.046875 -28.0l3.078125 0l6.40625 14.4375l6.390625 -14.4375l3.078125 0l3.046875 28.0l-3.921875 0z" fill-rule="nonzero"></path><path fill="#000000" fill-opacity="0.0" d="m0 345.91208l688.0 0" fill-rule="evenodd"></path><path stroke="#000000" stroke-width="4.0" stroke-linejoin="round" stroke-linecap="butt" stroke-dasharray="16.0,12.0" d="m22.513105 345.91208l641.4869 0" fill-rule="evenodd"></path><path stroke="#000000" stroke-width="4.0" stroke-linecap="butt" d="m22.513105 345.91208l-9.513106 -6.6611633l-9.513105 6.6611633l9.513105 6.661133z" fill-rule="evenodd"></path><path fill="#000000" stroke="#000000" stroke-width="4.0" stroke-linecap="butt" d="m664.0 352.519l18.152405 -6.6069336l-18.152405 -6.6069336z" fill-rule="evenodd"></path><path fill="#000000" fill-opacity="0.0" d="m568.0 281.91208l216.0 0l0 56.0l-216.0 0z" fill-rule="evenodd"></path><path fill="#000000" d="m620.68066 296.31207l3.640625 0l0 24.6875l10.671875 0l0 3.3125l-14.3125 0l0 -28.0zm20.637512 28.40625q-2.234375 0 -3.6875 -1.59375q-1.4375 -1.609375 -1.4375 -4.09375q0 -3.671875 3.078125 -5.296875q3.09375 -1.625 6.890625 -1.703125q0 -2.5625 -0.765625 -3.5625q-0.75 -1.0 -2.5625 -1.0q-2.3125 0 -4.71875 1.796875l-0.4375 -2.90625q2.515625 -2.046875 5.84375 -2.046875q3.15625 0 4.671875 1.828125q1.53125 1.8125 1.53125 5.859375l0 5.71875q0 2.28125 0.3125 3.21875q0.328125 0.9375 1.40625 0.9375l0.4375 0l-0.4375 2.84375l-0.765625 0q-1.84375 0 -2.71875 -0.671875q-0.875 -0.6875 -1.4375 -2.21875q-0.921875 1.328125 -2.28125 2.109375q-1.359375 0.78125 -2.921875 0.78125zm1.078125 -2.84375q0.96875 0 2.0 -0.734375q1.046875 -0.75 1.765625 -1.953125l0 -4.671875q-3.078125 0.15625 -4.6875 1.1875q-1.59375 1.015625 -1.59375 3.125q0 3.046875 2.515625 3.046875zm18.078735 2.84375q-2.28125 0 -3.375 -1.359375q-1.09375 -1.359375 -1.09375 -3.328125l0 -12.5625l-2.71875 0l0.3125 -2.75l2.40625 0l0 -4.84375l3.46875 -0.359375l0 5.203125l4.25 0l0 2.75l-4.25 0l0 11.15625q0 1.8125 0.65625 2.53125q0.671875 0.71875 2.3125 0.71875l1.234375 0l-0.3125 2.84375l-2.890625 0zm14.404358 0q-2.953125 0 -5.0625 -1.375q-2.09375 -1.390625 -3.15625 -3.75q-1.0625 -2.359375 -1.0625 -5.234375q0 -2.765625 0.984375 -5.0625q0.984375 -2.296875 2.84375 -3.640625q1.859375 -1.34375 4.40625 -1.34375q3.28125 0 5.34375 2.203125q2.0625 2.203125 2.0625 6.078125q0 0.671875 -0.15625 1.875l-11.921875 0q0.125 3.484375 1.734375 5.28125q1.625 1.796875 4.21875 1.796875q1.25 0 2.625 -0.296875q1.375 -0.296875 2.421875 -0.859375l0.3125 3.125q-2.1875 1.203125 -5.59375 1.203125zm2.796875 -12.6875q0 -2.0 -0.984375 -3.25q-0.96875 -1.265625 -2.8125 -1.265625q-1.796875 0 -2.984375 1.125q-1.171875 1.109375 -1.578125 3.390625l8.359375 0zm14.997498 -7.71875q3.046875 0 4.656189 2.390625q1.625 2.375 1.625 6.40625l0 11.203125l-3.468689 0l0 -10.765625q0 -3.109375 -0.90625 -4.609375q-0.90625 -1.5 -2.703125 -1.5q-1.3125 0 -2.4375 0.734375q-1.125 0.734375 -1.875 2.0625l0 14.078125l-3.484375 0l0 -19.59375l2.953125 0l0.25 2.4375q0.84375 -1.328125 2.25 -2.078125q1.421875 -0.765625 3.140625 -0.765625zm18.164368 20.40625q-4.484375 0 -6.8125 -2.8125q-2.3125 -2.828125 -2.3125 -7.28125q0 -4.59375 2.3125 -7.453125q2.328125 -2.859375 6.890625 -2.859375q2.4375 0 4.359375 1.0l-0.5625 3.078125q-1.796875 -0.953125 -3.75 -0.953125q-2.6875 0 -4.1875 1.859375q-1.5 1.859375 -1.5 5.171875q0 3.328125 1.53125 5.25q1.546875 1.90625 4.265625 1.90625q2.09375 0 3.6875 -0.953125l0.484375 3.125q-0.796875 0.390625 -2.0 0.65625q-1.203125 0.265625 -2.40625 0.265625zm12.634277 -1.28125l-7.15625 -18.71875l3.71875 0l5.25 14.59375l4.796875 -14.59375l3.71875 0l-10.515625 29.28125l-3.71875 0l3.90625 -10.5625z" fill-rule="nonzero"></path></g></svg>

