<?xml version="1.0" standalone="yes"?>

<svg version="1.1" viewBox="0.0 0.0 723.3412073490814 531.8241469816273" fill="none" stroke="none" stroke-linecap="square" stroke-miterlimit="10" xmlns="http://www.w3.org/2000/svg" xmlns:xlink="http://www.w3.org/1999/xlink"><clipPath id="p.0"><path d="m0 0l723.3412 0l0 531.82416l-723.3412 0l0 -531.82416z" clip-rule="nonzero"></path></clipPath><g clip-path="url(#p.0)"><path fill="#000000" fill-opacity="0.0" d="m0 0l723.3412 0l0 531.82416l-723.3412 0z" fill-rule="evenodd"></path><path fill="#d9ead3" d="m273.6706 257.91208l176.0 0l0 64.0l-176.0 0z" fill-rule="evenodd"></path><path stroke="#93c47d" stroke-width="4.0" stroke-linejoin="round" stroke-linecap="butt" d="m273.6706 257.91208l176.0 0l0 64.0l-176.0 0z" fill-rule="evenodd"></path><path fill="#000000" d="m342.75064 304.87457q-3.875 0 -6.765625 -1.78125q-2.875 -1.78125 -4.453125 -5.078125q-1.578125 -3.296875 -1.578125 -7.703125q0 -4.359375 1.609375 -7.65625q1.625 -3.296875 4.5 -5.09375q2.890625 -1.8125 6.53125 -1.8125q3.203125 0 6.078125 1.203125l-0.40625 3.40625q-2.5625 -1.28125 -4.953125 -1.28125q-2.96875 0 -5.0625 1.484375q-2.09375 1.46875 -3.1875 4.03125q-1.078125 2.5625 -1.078125 5.71875q0 3.15625 1.078125 5.71875q1.09375 2.5625 3.1875 4.046875q2.09375 1.46875 5.09375 1.46875q2.609375 0 4.921875 -1.1875l0.40625 3.390625q-2.5625 1.125 -5.921875 1.125zm9.913086 -28.5625l7.203125 0q4.40625 0 6.859375 2.328125q2.46875 2.3125 2.46875 6.75q0 4.4375 -2.46875 6.78125q-2.453125 2.34375 -6.859375 2.34375l-3.515625 0l0 9.796875l-3.6875 0l0 -28.0zm6.890625 14.84375q5.84375 0 5.84375 -5.765625q0 -5.765625 -5.84375 -5.765625l-3.203125 0l0 11.53125l3.203125 0zm22.668732 13.71875q-5.078125 0 -7.515625 -3.03125q-2.4375 -3.046875 -2.4375 -8.609375l0 -16.921875l3.640625 0l0 15.875q0 2.921875 0.453125 4.921875q0.46875 2.0 1.859375 3.21875q1.40625 1.21875 4.0 1.21875q2.640625 0 4.046875 -1.21875q1.40625 -1.21875 1.859375 -3.21875q0.46875 -2.0 0.46875 -4.921875l0 -15.875l3.625 0l0 16.921875q0 5.59375 -2.4375 8.625q-2.4375 3.015625 -7.5625 3.015625z" fill-rule="nonzero"></path><path fill="#d9ead3" d="m193.67061 209.91208l32.0 0l0 168.0l-32.0 0z" fill-rule="evenodd"></path><path stroke="#93c47d" stroke-width="4.0" stroke-linejoin="round" stroke-linecap="butt" d="m193.67061 209.91208l32.0 0l0 168.0l-32.0 0z" fill-rule="evenodd"></path><path fill="#d9ead3" d="m497.6706 209.91208l32.0 0l0 168.0l-32.0 0z" fill-rule="evenodd"></path><path stroke="#93c47d" stroke-width="4.0" stroke-linejoin="round" stroke-linecap="butt" d="m497.6706 209.91208l32.0 0l0 168.0l-32.0 0z" fill-rule="evenodd"></path><defs><linearGradient id="p.1" gradientUnits="userSpaceOnUse" gradientTransform="matrix(7.483322993956059 0.0 0.0 7.483322993956059 0.0 0.0)" spreadMethod="pad" x1="31.225513567069846" y1="34.86083898686445" x2="31.22548616580792" y2="42.344161980770345"><stop offset="0.0" stop-color="#fdecdb"></stop><stop offset="1.0" stop-color="#f0a963"></stop></linearGradient></defs><path fill="url(#p.1)" d="m233.67061 274.87503l16.0 0l0 -14.0l15.999985 28.0l-15.999985 28.0l0 -14.0l-16.0 0z" fill-rule="evenodd"></path><defs><linearGradient id="p.2" gradientUnits="userSpaceOnUse" gradientTransform="matrix(7.483321623892837 0.0 0.0 7.483321623892837 0.0 0.0)" spreadMethod="pad" x1="61.15875097674334" y1="34.46490528231508" x2="61.1587235754764" y2="41.94822690615775"><stop offset="0.0" stop-color="#d4e5f5"></stop><stop offset="1.0" stop-color="#70a4d5"></stop></linearGradient></defs><path fill="url(#p.2)" d="m457.6706 271.91208l16.0 0l0 -14.0l16.0 28.0l-16.0 28.0l0 -14.0l-16.0 0z" fill-rule="evenodd"></path><path fill="#000000" fill-opacity="0.0" d="m97.6706 169.91208l224.0 0l0 32.0l-224.0 0z" fill-rule="evenodd"></path><path fill="#000000" d="m176.79251 172.31207l7.203125 0q4.390625 0 6.84375 2.1875q2.46875 2.171875 2.46875 6.375q0 2.390625 -1.140625 4.34375q-1.140625 1.9375 -3.171875 3.046875l5.59375 12.046875l-4.3125 0l-5.0 -10.953125q-0.640625 0.078125 -1.328125 0.078125l-3.515625 0l0 10.875l-3.640625 0l0 -28.0zm6.875 13.765625q3.046875 0 4.4375 -1.3125q1.40625 -1.328125 1.40625 -3.890625q0 -2.609375 -1.40625 -3.921875q-1.390625 -1.328125 -4.4375 -1.328125l-3.234375 0l0 10.453125l3.234375 0zm26.99936 6.640625l-8.671875 0l-2.25 7.59375l-3.921875 0l8.609375 -28.0l3.765625 0l8.59375 28.0l-3.875 0l-2.25 -7.59375zm-1.0 -3.40625l-3.359375 -11.359375l-3.3125 11.359375l6.671875 0zm30.44374 11.0l-1.84375 -20.234375l-6.75 14.4375l-6.7656403 -14.4375l-1.875 20.234375l-3.890625 0l3.046875 -28.0l3.078125 0l6.4062653 14.4375l6.390625 -14.4375l3.078125 0l3.046875 28.0l-3.921875 0z" fill-rule="nonzero"></path><path fill="#000000" fill-opacity="0.0" d="m401.6706 169.91208l224.0 0l0 32.0l-224.0 0z" fill-rule="evenodd"></path><path fill="#000000" d="m480.7925 172.31207l7.203125 0q4.390625 0 6.84375 2.1875q2.46875 2.171875 2.46875 6.375q0 2.390625 -1.140625 4.34375q-1.140625 1.9375 -3.171875 3.046875l5.59375 12.046875l-4.3125 0l-5.0 -10.953125q-0.640625 0.078125 -1.328125 0.078125l-3.515625 0l0 10.875l-3.640625 0l0 -28.0zm6.875 13.765625q3.046875 0 4.4375 -1.3125q1.40625 -1.328125 1.40625 -3.890625q0 -2.609375 -1.40625 -3.921875q-1.390625 -1.328125 -4.4375 -1.328125l-3.234375 0l0 10.453125l3.234375 0zm26.99936 6.640625l-8.671875 0l-2.25 7.59375l-3.921875 0l8.609375 -28.0l3.765625 0l8.59375 28.0l-3.875 0l-2.25 -7.59375zm-1.0 -3.40625l-3.359375 -11.359375l-3.3125 11.359375l6.671875 0zm30.443726 11.0l-1.84375 -20.234375l-6.75 14.4375l-6.765625 -14.4375l-1.875 20.234375l-3.890625 0l3.046875 -28.0l3.078125 0l6.40625 14.4375l6.390625 -14.4375l3.078125 0l3.046875 28.0l-3.921875 0z" fill-rule="nonzero"></path><path fill="#000000" fill-opacity="0.0" d="m129.67061 121.91207l464.0 0l0 288.0l-464.0 0z" fill-rule="evenodd"></path><path stroke="#e06666" stroke-width="4.0" stroke-linejoin="round" stroke-linecap="butt" d="m129.67061 121.91207l464.0 0l0 288.0l-464.0 0z" fill-rule="evenodd"></path></g></svg>

