<?xml version="1.0" standalone="yes"?>

<svg version="1.1" viewBox="0.0 0.0 960.0 720.0" fill="none" stroke="none" stroke-linecap="square" stroke-miterlimit="10" xmlns="http://www.w3.org/2000/svg" xmlns:xlink="http://www.w3.org/1999/xlink"><clipPath id="p.0"><path d="m0 0l960.0 0l0 720.0l-960.0 0l0 -720.0z" clip-rule="nonzero"></path></clipPath><g clip-path="url(#p.0)"><path fill="#000000" fill-opacity="0.0" d="m0 0l960.0 0l0 720.0l-960.0 0z" fill-rule="evenodd"></path><path fill="#000000" fill-opacity="0.0" d="m11.692913 183.77821l945.5118 0" fill-rule="evenodd"></path><path stroke="#000000" stroke-width="2.0" stroke-linejoin="round" stroke-linecap="butt" stroke-dasharray="8.0,6.0" d="m11.692913 183.77821l938.65765 0" fill-rule="evenodd"></path><path fill="#000000" stroke="#000000" stroke-width="2.0" stroke-linecap="butt" d="m950.3505 183.77821l-2.2491455 2.249176l6.1795654 -2.249176l-6.1795654 -2.2491608z" fill-rule="evenodd"></path><path fill="#ead1dc" d="m64.0 240.22179l128.0 0l0 63.999985l-128.0 0z" fill-rule="evenodd"></path><path stroke="#a64d79" stroke-width="4.0" stroke-linejoin="round" stroke-linecap="butt" d="m64.0 240.22179l128.0 0l0 63.999985l-128.0 0z" fill-rule="evenodd"></path><path fill="#000000" d="m128.7044 280.76178l-1.2187424 -10.796875l-3.578125 7.40625l-3.578125 -7.40625l-1.21875 10.796875l-3.03125 0l2.109375 -16.796875l2.390625 0l3.328125 7.359375l3.34375 -7.359375l2.3749924 0l2.109375 16.796875l-3.03125 0zm6.9418335 -12.453125q-0.796875 0.640625 -1.75 0.859375l-0.203125 -2.59375q0.84375 -0.265625 1.609375 -1.0q0.78125 -0.75 1.0625 -1.609375l2.203125 0l0 16.796875l-2.921875 0l0 -12.453125z" fill-rule="nonzero"></path><path fill="#ead1dc" d="m256.0 240.22179l128.0 0l0 63.999985l-128.0 0z" fill-rule="evenodd"></path><path stroke="#a64d79" stroke-width="4.0" stroke-linejoin="round" stroke-linecap="butt" d="m256.0 240.22179l128.0 0l0 63.999985l-128.0 0z" fill-rule="evenodd"></path><path fill="#000000" d="m319.3244 280.76178l-1.21875 -10.796875l-3.578125 7.40625l-3.578125 -7.40625l-1.21875 10.796875l-3.03125 0l2.109375 -16.796875l2.390625 0l3.328125 7.359375l3.34375 -7.359375l2.375 0l2.109375 16.796875l-3.03125 0zm8.4262085 -6.28125q1.203125 -2.28125 1.625 -3.484375q0.4375 -1.21875 0.4375 -2.328125q0 -1.015625 -0.53125 -1.546875q-0.515625 -0.546875 -1.484375 -0.546875q-1.296875 0 -2.734375 1.15625l-0.328125 -2.875q1.84375 -1.234375 4.078125 -1.234375q1.96875 0 3.015625 1.296875q1.0625 1.296875 1.0625 3.25q0 1.5 -0.515625 3.0q-0.515625 1.5 -1.953125 4.21875l-1.34375 2.546875l4.125 0l0 2.828125l-8.734375 0l3.28125 -6.28125z" fill-rule="nonzero"></path><path fill="#ead1dc" d="m448.0 240.22179l128.0 0l0 63.999985l-128.0 0z" fill-rule="evenodd"></path><path stroke="#a64d79" stroke-width="4.0" stroke-linejoin="round" stroke-linecap="butt" d="m448.0 240.22179l128.0 0l0 63.999985l-128.0 0z" fill-rule="evenodd"></path><path fill="#000000" d="m511.2044 280.76178l-1.21875 -10.796875l-3.578125 7.40625l-3.578125 -7.40625l-1.21875 10.796875l-3.03125 0l2.109375 -16.796875l2.390625 0l3.328125 7.359375l3.34375 -7.359375l2.375 0l2.109375 16.796875l-3.03125 0zm10.9887085 -8.90625q1.34375 0.453125 2.109375 1.53125q0.78125 1.0625 0.78125 2.59375q0 2.421875 -1.4375 3.78125q-1.421875 1.34375 -3.828125 1.34375q-2.296875 0 -4.0 -1.046875l0.734375 -2.578125q0.703125 0.5 1.40625 0.75q0.71875 0.234375 1.546875 0.234375q1.203125 0 1.875 -0.625q0.671875 -0.625 0.671875 -1.859375q0 -1.25 -0.703125 -1.890625q-0.6875 -0.640625 -1.953125 -0.640625l-0.75 0l0 -2.890625l0.71875 0q1.015625 0 1.546875 -0.578125q0.546875 -0.59375 0.546875 -1.671875q0 -0.9375 -0.53125 -1.484375q-0.53125 -0.5625 -1.484375 -0.5625q-1.28125 0 -2.625 0.796875l-0.453125 -2.609375q1.59375 -0.828125 3.65625 -0.828125q2.0625 0 3.25 1.1875q1.203125 1.171875 1.203125 3.109375q0 2.71875 -2.28125 3.9375z" fill-rule="nonzero"></path><path fill="#ead1dc" d="m640.0 240.22179l128.0 0l0 63.999985l-128.0 0z" fill-rule="evenodd"></path><path stroke="#a64d79" stroke-width="4.0" stroke-linejoin="round" stroke-linecap="butt" d="m640.0 240.22179l128.0 0l0 63.999985l-128.0 0z" fill-rule="evenodd"></path><path fill="#000000" d="m702.7244 280.76178l-1.21875 -10.796875l-3.578125 7.40625l-3.578125 -7.40625l-1.21875 10.796875l-3.03125 0l2.109375 -16.796875l2.390625 0l3.328125 7.359375l3.34375 -7.359375l2.375 0l2.109375 16.796875l-3.03125 0zm15.0199585 -6.265625l0 2.421875l-1.4375 0l0 3.84375l-2.921875 0l0 -3.84375l-6.578125 0l7.515625 -12.953125l1.984375 0l0 10.53125l1.4375 0zm-4.359375 0l0 -4.625l-2.515625 4.625l2.515625 0z" fill-rule="nonzero"></path><path fill="#ead1dc" d="m832.0 240.22179l128.0 0l0 63.999985l-128.0 0z" fill-rule="evenodd"></path><path stroke="#a64d79" stroke-width="4.0" stroke-linejoin="round" stroke-linecap="butt" d="m832.0 240.22179l128.0 0l0 63.999985l-128.0 0z" fill-rule="evenodd"></path><path fill="#000000" d="m895.2284 280.76178l-1.21875 -10.796875l-3.578125 7.40625l-3.578125 -7.40625l-1.21875 10.796875l-3.03125 0l2.109375 -16.796875l2.390625 0l3.328125 7.359375l3.34375 -7.359375l2.375 0l2.109375 16.796875l-3.03125 0zm9.2699585 -10.5625q2.15625 0 3.46875 1.390625q1.328125 1.390625 1.328125 3.8125q0 1.734375 -0.6875 3.015625q-0.6875 1.28125 -1.890625 1.96875q-1.1875 0.6875 -2.71875 0.6875q-2.09375 0 -3.78125 -0.953125l0.734375 -2.765625q1.390625 0.84375 2.75 0.84375q1.203125 0 1.90625 -0.71875q0.71875 -0.734375 0.71875 -1.953125q0 -1.3125 -0.765625 -2.0625q-0.75 -0.75 -2.171875 -0.75q-0.984375 0 -2.328125 0.34375l1.078125 -9.09375l6.484375 0l-0.1875 2.96875l-4.078125 0l-0.40625 3.296875q0.15625 -0.03125 0.546875 -0.03125z" fill-rule="nonzero"></path><path fill="#ead1dc" d="m256.0 472.22177l128.0 0l0 64.00003l-128.0 0z" fill-rule="evenodd"></path><path stroke="#a64d79" stroke-width="4.0" stroke-linejoin="round" stroke-linecap="butt" d="m256.0 472.22177l128.0 0l0 64.00003l-128.0 0z" fill-rule="evenodd"></path><path fill="#000000" d="m320.7044 512.7618l-1.21875 -10.796875l-3.578125 7.40625l-3.578125 -7.40625l-1.21875 10.796875l-3.03125 0l2.109375 -16.796875l2.390625 0l3.328125 7.359375l3.34375 -7.359375l2.375 0l2.109375 16.796875l-3.03125 0zm6.9418335 -12.453125q-0.796875 0.640625 -1.75 0.859375l-0.203125 -2.59375q0.84375 -0.265625 1.609375 -1.0q0.78125 -0.75 1.0625 -1.609375l2.203125 0l0 16.796875l-2.921875 0l0 -12.453125z" fill-rule="nonzero"></path><path fill="#ead1dc" d="m384.0 472.22177l128.0 0l0 64.00003l-128.0 0z" fill-rule="evenodd"></path><path stroke="#a64d79" stroke-width="4.0" stroke-linejoin="round" stroke-linecap="butt" d="m384.0 472.22177l128.0 0l0 64.00003l-128.0 0z" fill-rule="evenodd"></path><path fill="#000000" d="m447.3244 512.7618l-1.21875 -10.796875l-3.578125 7.40625l-3.578125 -7.40625l-1.21875 10.796875l-3.03125 0l2.109375 -16.796875l2.390625 0l3.328125 7.359375l3.34375 -7.359375l2.375 0l2.109375 16.796875l-3.03125 0zm8.4262085 -6.28125q1.203125 -2.28125 1.625 -3.484375q0.4375 -1.21875 0.4375 -2.328125q0 -1.015625 -0.53125 -1.546875q-0.515625 -0.546875 -1.484375 -0.546875q-1.296875 0 -2.734375 1.15625l-0.328125 -2.875q1.84375 -1.234375 4.078125 -1.234375q1.96875 0 3.015625 1.296875q1.0625 1.296875 1.0625 3.25q0 1.5 -0.515625 3.0q-0.515625 1.5 -1.953125 4.21875l-1.34375 2.546875l4.125 0l0 2.828125l-8.734375 0l3.28125 -6.28125z" fill-rule="nonzero"></path><path fill="#ead1dc" d="m512.0 472.22177l128.0 0l0 64.00003l-128.0 0z" fill-rule="evenodd"></path><path stroke="#a64d79" stroke-width="4.0" stroke-linejoin="round" stroke-linecap="butt" d="m512.0 472.22177l128.0 0l0 64.00003l-128.0 0z" fill-rule="evenodd"></path><path fill="#000000" d="m575.2044 512.7618l-1.21875 -10.796875l-3.578125 7.40625l-3.578125 -7.40625l-1.21875 10.796875l-3.03125 0l2.109375 -16.796875l2.390625 0l3.328125 7.359375l3.34375 -7.359375l2.375 0l2.109375 16.796875l-3.03125 0zm10.9887085 -8.90625q1.34375 0.453125 2.109375 1.53125q0.78125 1.0625 0.78125 2.59375q0 2.421875 -1.4375 3.78125q-1.421875 1.34375 -3.828125 1.34375q-2.296875 0 -4.0 -1.046875l0.734375 -2.578125q0.703125 0.5 1.40625 0.75q0.71875 0.234375 1.546875 0.234375q1.203125 0 1.875 -0.625q0.671875 -0.625 0.671875 -1.859375q0 -1.25 -0.703125 -1.890625q-0.6875 -0.640625 -1.953125 -0.640625l-0.75 0l0 -2.890625l0.71875 0q1.015625 0 1.546875 -0.578125q0.546875 -0.59375 0.546875 -1.671875q0 -0.9375 -0.53125 -1.484375q-0.53125 -0.5625 -1.484375 -0.5625q-1.28125 0 -2.625 0.796875l-0.453125 -2.609375q1.59375 -0.828125 3.65625 -0.828125q2.0625 0 3.25 1.1875q1.203125 1.171875 1.203125 3.109375q0 2.71875 -2.28125 3.9375z" fill-rule="nonzero"></path><path fill="#ead1dc" d="m640.0 472.22177l128.0 0l0 64.00003l-128.0 0z" fill-rule="evenodd"></path><path stroke="#a64d79" stroke-width="4.0" stroke-linejoin="round" stroke-linecap="butt" d="m640.0 472.22177l128.0 0l0 64.00003l-128.0 0z" fill-rule="evenodd"></path><path fill="#000000" d="m702.7244 512.7618l-1.21875 -10.796875l-3.578125 7.40625l-3.578125 -7.40625l-1.21875 10.796875l-3.03125 0l2.109375 -16.796875l2.390625 0l3.328125 7.359375l3.34375 -7.359375l2.375 0l2.109375 16.796875l-3.03125 0zm15.0199585 -6.265625l0 2.421875l-1.4375 0l0 3.84375l-2.921875 0l0 -3.84375l-6.578125 0l7.515625 -12.953125l1.984375 0l0 10.53125l1.4375 0zm-4.359375 0l0 -4.625l-2.515625 4.625l2.515625 0z" fill-rule="nonzero"></path><path fill="#ead1dc" d="m768.0 472.22177l128.0 0l0 64.00003l-128.0 0z" fill-rule="evenodd"></path><path stroke="#a64d79" stroke-width="4.0" stroke-linejoin="round" stroke-linecap="butt" d="m768.0 472.22177l128.0 0l0 64.00003l-128.0 0z" fill-rule="evenodd"></path><path fill="#000000" d="m831.2284 512.7618l-1.21875 -10.796875l-3.578125 7.40625l-3.578125 -7.40625l-1.21875 10.796875l-3.03125 0l2.109375 -16.796875l2.390625 0l3.328125 7.359375l3.34375 -7.359375l2.375 0l2.109375 16.796875l-3.03125 0zm9.2699585 -10.5625q2.15625 0 3.46875 1.390625q1.328125 1.390625 1.328125 3.8125q0 1.734375 -0.6875 3.015625q-0.6875 1.28125 -1.890625 1.96875q-1.1875 0.6875 -2.71875 0.6875q-2.09375 0 -3.78125 -0.953125l0.734375 -2.765625q1.390625 0.84375 2.75 0.84375q1.203125 0 1.90625 -0.71875q0.71875 -0.734375 0.71875 -1.953125q0 -1.3125 -0.765625 -2.0625q-0.75 -0.75 -2.171875 -0.75q-0.984375 0 -2.328125 0.34375l1.078125 -9.09375l6.484375 0l-0.1875 2.96875l-4.078125 0l-0.40625 3.296875q0.15625 -0.03125 0.546875 -0.03125z" fill-rule="nonzero"></path><path fill="#ead1dc" d="m192.0 472.22177l64.0 0l0 64.00003l-64.0 0z" fill-rule="evenodd"></path><path stroke="#a64d79" stroke-width="4.0" stroke-linejoin="round" stroke-linecap="butt" d="m192.0 472.22177l64.0 0l0 64.00003l-64.0 0z" fill-rule="evenodd"></path><path fill="#000000" d="m215.53378 500.57428q1.8125 0 2.75 1.1875q0.953125 1.1875 0.953125 3.203125l0 7.796875l-2.875 0l0 -7.421875q0 -2.421875 -1.640625 -2.421875q-1.125 0 -1.84375 1.03125l0 8.8125l-2.875 0l0 -18.0l2.875 0l0 6.703125q1.078125 -0.890625 2.65625 -0.890625zm15.431213 -5.8125l0 18.0l-2.703125 0l-0.046875 -0.765625q-0.578125 0.5 -1.25 0.75q-0.65625 0.25 -1.515625 0.25q-1.484375 0 -2.5625 -0.828125q-1.078125 -0.84375 -1.640625 -2.25q-0.546875 -1.421875 -0.546875 -3.125q0 -1.71875 0.546875 -3.125q0.5625 -1.421875 1.640625 -2.25q1.078125 -0.84375 2.5625 -0.84375q1.5625 0 2.640625 0.9375l0 -6.75l2.875 0zm-5.078125 15.890625q1.171875 0 1.75 -1.046875q0.59375 -1.046875 0.59375 -2.8125q0 -1.78125 -0.59375 -2.828125q-0.578125 -1.046875 -1.75 -1.046875q-1.0625 0 -1.671875 1.0625q-0.59375 1.046875 -0.59375 2.8125q0 1.75 0.59375 2.8125q0.609375 1.046875 1.671875 1.046875zm7.36322 -9.890625l2.515625 0l0.203125 1.265625q0.671875 -0.734375 1.25 -1.09375q0.59375 -0.359375 1.390625 -0.359375q0.328125 0 0.625 0.0625l-0.21875 2.90625q-0.359375 -0.125 -0.765625 -0.125q-0.578125 0 -1.046875 0.265625q-0.453125 0.265625 -1.078125 0.890625l0 8.1875l-2.875 0l0 -12.0z" fill-rule="nonzero"></path><defs><linearGradient id="p.1" gradientUnits="userSpaceOnUse" gradientTransform="matrix(0.0 9.92097217902913 -9.92097217902913 0.0 0.0 0.0)" spreadMethod="pad" x1="32.435199706633135" y1="-56.28951238590771" x2="32.43516250317348" y2="-46.36854020694834"><stop offset="0.0" stop-color="#dfe9fb"></stop><stop offset="1.0" stop-color="#6e9be7"></stop></linearGradient></defs><path fill="url(#p.1)" d="m558.44617 321.78873l0 78.787384l-49.212585 49.212616l-49.212585 -49.212616l0 -78.787384l49.212585 49.212585z" fill-rule="evenodd"></path><path fill="#000000" fill-opacity="0.0" d="m410.9884 363.3058l192.0 0l0 49.13385l-192.0 0z" fill-rule="evenodd"></path><path fill="#000000" d="m471.68094 384.57764q1.578125 0 2.734375 0.9375q1.15625 0.921875 1.765625 2.484375q0.625 1.5625 0.625 3.375q0 1.890625 -0.640625 3.453125q-0.640625 1.5625 -1.8125 2.453125q-1.15625 0.890625 -2.671875 0.890625q-1.0625 0 -1.984375 -0.390625q-0.921875 -0.40625 -1.53125 -1.15625l-0.109375 1.28125l-2.109375 0l0 -19.984375l2.328125 0l0 8.171875q1.375 -1.515625 3.40625 -1.515625zm-0.40625 11.546875q1.421875 0 2.28125 -1.375q0.875 -1.375 0.875 -3.375q0 -2.046875 -0.859375 -3.375q-0.84375 -1.34375 -2.296875 -1.34375q-1.4375 0 -2.328125 1.21875q-0.890625 1.203125 -0.890625 3.5q0 2.375 0.890625 3.5625q0.890625 1.1875 2.328125 1.1875zm10.505463 2.046875q-1.484375 0 -2.453125 -1.0625q-0.953125 -1.0625 -0.953125 -2.71875q0 -2.453125 2.046875 -3.53125q2.0625 -1.078125 4.59375 -1.140625q0 -1.703125 -0.515625 -2.359375q-0.5 -0.671875 -1.703125 -0.671875q-1.546875 0 -3.140625 1.203125l-0.296875 -1.953125q1.6875 -1.359375 3.890625 -1.359375q2.109375 0 3.125 1.21875q1.015625 1.203125 1.015625 3.90625l0 3.8125q0 1.515625 0.203125 2.140625q0.21875 0.625 0.9375 0.625l0.296875 0l-0.296875 1.890625l-0.5 0q-1.234375 0 -1.828125 -0.453125q-0.578125 -0.453125 -0.953125 -1.46875q-0.609375 0.890625 -1.515625 1.40625q-0.90625 0.515625 -1.953125 0.515625zm0.71875 -1.890625q0.640625 0 1.328125 -0.484375q0.703125 -0.5 1.1875 -1.296875l0 -3.125q-2.0625 0.109375 -3.125 0.796875q-1.0625 0.671875 -1.0625 2.078125q0 2.03125 1.671875 2.03125zm12.053131 1.890625q-1.515625 0 -2.25 -0.90625q-0.734375 -0.90625 -0.734375 -2.21875l0 -8.359375l-1.8125 0l0.21875 -1.84375l1.59375 0l0 -3.21875l2.3125 -0.25l0 3.46875l2.828125 0l0 1.84375l-2.828125 0l0 7.4375q0 1.203125 0.4375 1.6875q0.453125 0.46875 1.546875 0.46875l0.828125 0l-0.21875 1.890625l-1.921875 0zm9.4122925 0q-2.984375 0 -4.53125 -1.875q-1.546875 -1.875 -1.546875 -4.84375q0 -3.0625 1.546875 -4.96875q1.546875 -1.90625 4.578125 -1.90625q1.625 0 2.90625 0.671875l-0.375 2.046875q-1.1875 -0.640625 -2.5 -0.640625q-1.78125 0 -2.78125 1.25q-1.0 1.234375 -1.0 3.4375q0 2.21875 1.015625 3.5q1.03125 1.28125 2.84375 1.28125q1.390625 0 2.453125 -0.640625l0.328125 2.078125q-0.546875 0.265625 -1.34375 0.4375q-0.796875 0.171875 -1.59375 0.171875zm10.793854 -13.59375q2.03125 0 3.109375 1.59375q1.078125 1.578125 1.078125 4.265625l0 7.46875l-2.328125 0l0 -7.171875q0 -2.078125 -0.59375 -3.046875q-0.578125 -0.984375 -1.796875 -0.984375q-0.90625 0 -1.640625 0.5q-0.734375 0.5 -1.234375 1.375l0 9.328125l-2.328125 0l0 -19.984375l2.328125 0l0 8.3125q0.546875 -0.78125 1.453125 -1.21875q0.90625 -0.4375 1.953125 -0.4375zm6.958557 -5.328125l2.3125 0l0 2.640625l-2.3125 0l0 -2.640625zm0 5.59375l2.3125 0l0 13.0625l-2.3125 0l0 -13.0625zm10.953491 -0.265625q2.03125 0 3.109375 1.59375q1.078125 1.578125 1.078125 4.265625l0 7.46875l-2.3125 0l0 -7.171875q0 -2.078125 -0.609375 -3.078125q-0.59375 -1.0 -1.796875 -1.0q-0.875 0 -1.625 0.5q-0.75 0.484375 -1.25 1.359375l0 9.390625l-2.328125 0l0 -13.0625l1.984375 0l0.15625 1.625q0.5625 -0.875 1.5 -1.375q0.953125 -0.515625 2.09375 -0.515625zm11.167175 19.984375q-2.3125 0 -3.765625 -0.953125q-1.453125 -0.9375 -1.453125 -2.578125q0 -1.90625 2.078125 -3.3125q-1.234375 -0.578125 -1.234375 -1.78125q0 -0.609375 0.375 -1.078125q0.375 -0.46875 1.078125 -0.734375q-1.0 -0.703125 -1.53125 -1.875q-0.53125 -1.171875 -0.53125 -2.578125q0 -1.4375 0.5625 -2.59375q0.5625 -1.171875 1.609375 -1.828125q1.0625 -0.671875 2.46875 -0.671875q1.703125 0 2.875 0.953125q1.046875 -0.953125 2.21875 -0.953125q0.34375 0 0.671875 0.046875l-0.25 1.875q-0.265625 -0.0625 -0.53125 -0.0625q-0.5625 0 -1.125 0.25q0.78125 1.25 0.78125 2.984375q0 1.4375 -0.5625 2.625q-0.5625 1.1875 -1.625 1.890625q-1.046875 0.703125 -2.453125 0.703125q-0.75 0 -1.328125 -0.1875q-0.515625 0.21875 -0.515625 0.625q0 0.34375 0.34375 0.546875q0.359375 0.1875 1.234375 0.453125l1.84375 0.5625q1.640625 0.515625 2.59375 1.015625q0.953125 0.484375 1.40625 1.15625q0.453125 0.6875 0.453125 1.703125q0 1.8125 -1.578125 2.796875q-1.578125 1.0 -4.109375 1.0zm-0.34375 -11.5q1.140625 0 1.78125 -0.921875q0.640625 -0.921875 0.640625 -2.4375q0 -1.453125 -0.640625 -2.359375q-0.640625 -0.90625 -1.78125 -0.90625q-1.140625 0 -1.78125 0.90625q-0.640625 0.890625 -0.640625 2.359375q0 1.515625 0.640625 2.4375q0.640625 0.921875 1.78125 0.921875zm0.5 9.609375q1.453125 0 2.3125 -0.453125q0.859375 -0.453125 0.859375 -1.328125q0 -0.71875 -0.53125 -1.140625q-0.53125 -0.40625 -1.9375 -0.828125l-2.140625 -0.640625q-1.8125 1.140625 -1.8125 2.390625q0 1.0 0.859375 1.5q0.875 0.5 2.390625 0.5z" fill-rule="nonzero"></path><path fill="#000000" fill-opacity="0.0" d="m192.0 184.22179l64.0 0" fill-rule="evenodd"></path><path stroke="#ff0000" stroke-width="4.0" stroke-linejoin="round" stroke-linecap="butt" d="m214.5131 184.22179l18.973785 0" fill-rule="evenodd"></path><path fill="#ff0000" stroke="#ff0000" stroke-width="4.0" stroke-linecap="butt" d="m214.5131 184.22179l-9.513107 -6.661148l-9.513107 6.661148l9.513107 6.661148z" fill-rule="evenodd"></path><path fill="#ff0000" stroke="#ff0000" stroke-width="4.0" stroke-linecap="butt" d="m233.4869 184.22179l9.513107 6.661148l9.513107 -6.661148l-9.513107 -6.661148z" fill-rule="evenodd"></path><path fill="#000000" fill-opacity="0.0" d="m384.0 184.22179l64.0 0" fill-rule="evenodd"></path><path stroke="#ff0000" stroke-width="4.0" stroke-linejoin="round" stroke-linecap="butt" d="m406.51312 184.22179l18.973755 0" fill-rule="evenodd"></path><path fill="#ff0000" stroke="#ff0000" stroke-width="4.0" stroke-linecap="butt" d="m406.5131 184.22179l-9.513092 -6.661148l-9.513092 6.661148l9.513092 6.661148z" fill-rule="evenodd"></path><path fill="#ff0000" stroke="#ff0000" stroke-width="4.0" stroke-linecap="butt" d="m425.4869 184.22179l9.513092 6.661148l9.513092 -6.661148l-9.513092 -6.661148z" fill-rule="evenodd"></path><path fill="#000000" fill-opacity="0.0" d="m576.0 184.22179l64.0 0" fill-rule="evenodd"></path><path stroke="#ff0000" stroke-width="4.0" stroke-linejoin="round" stroke-linecap="butt" d="m598.5131 184.22179l18.973755 0" fill-rule="evenodd"></path><path fill="#ff0000" stroke="#ff0000" stroke-width="4.0" stroke-linecap="butt" d="m598.5131 184.22179l-9.513123 -6.661148l-9.513123 6.661148l9.513123 6.661148z" fill-rule="evenodd"></path><path fill="#ff0000" stroke="#ff0000" stroke-width="4.0" stroke-linecap="butt" d="m617.4869 184.22179l9.513123 6.661148l9.513123 -6.661148l-9.513123 -6.661148z" fill-rule="evenodd"></path><path fill="#000000" fill-opacity="0.0" d="m768.0 184.22179l64.0 0" fill-rule="evenodd"></path><path stroke="#ff0000" stroke-width="4.0" stroke-linejoin="round" stroke-linecap="butt" d="m790.5131 184.22179l18.973755 0" fill-rule="evenodd"></path><path fill="#ff0000" stroke="#ff0000" stroke-width="4.0" stroke-linecap="butt" d="m790.5131 184.22179l-9.513123 -6.661148l-9.513123 6.661148l9.513123 6.661148z" fill-rule="evenodd"></path><path fill="#ff0000" stroke="#ff0000" stroke-width="4.0" stroke-linecap="butt" d="m809.4869 184.22179l9.513123 6.661148l9.513123 -6.661148l-9.513123 -6.661148z" fill-rule="evenodd"></path><path fill="#000000" fill-opacity="0.0" d="m0 184.22179l64.0 0" fill-rule="evenodd"></path><path stroke="#ff0000" stroke-width="4.0" stroke-linejoin="round" stroke-linecap="butt" d="m22.513105 184.22179l18.973787 0" fill-rule="evenodd"></path><path fill="#ff0000" stroke="#ff0000" stroke-width="4.0" stroke-linecap="butt" d="m22.513105 184.22179l-9.513106 -6.661148l-9.513105 6.661148l9.513105 6.661148z" fill-rule="evenodd"></path><path fill="#ff0000" stroke="#ff0000" stroke-width="4.0" stroke-linecap="butt" d="m41.486893 184.22179l9.513107 6.661148l9.513107 -6.661148l-9.513107 -6.661148z" fill-rule="evenodd"></path></g></svg>

