<?xml version="1.0" standalone="yes"?>

<svg version="1.1" viewBox="0.0 0.0 960.0 720.0" fill="none" stroke="none" stroke-linecap="square" stroke-miterlimit="10" xmlns="http://www.w3.org/2000/svg" xmlns:xlink="http://www.w3.org/1999/xlink"><clipPath id="p.0"><path d="m0 0l960.0 0l0 720.0l-960.0 0l0 -720.0z" clip-rule="nonzero"></path></clipPath><g clip-path="url(#p.0)"><path fill="#000000" fill-opacity="0.0" d="m0 0l960.0 0l0 720.0l-960.0 0z" fill-rule="evenodd"></path><path fill="#ead1dc" d="m86.33071 118.81365l797.38586 0l0 101.448814l-797.38586 0z" fill-rule="evenodd"></path><path stroke="#a64d79" stroke-width="4.0" stroke-linejoin="round" stroke-linecap="butt" d="m86.33071 118.81365l797.38586 0l0 101.448814l-797.38586 0z" fill-rule="evenodd"></path><path fill="#000000" fill-opacity="0.0" d="m86.86877 47.37008l698.2677 0l0 58.456696l-698.2677 0z" fill-rule="evenodd"></path><path fill="#000000" d="m107.32189 87.543205q-3.234375 0 -5.609375 -1.484375q-2.359375 -1.5 -3.625 -4.140625q-1.265625 -2.640625 -1.265625 -6.03125q0 -3.484375 1.34375 -6.125q1.34375 -2.640625 3.703125 -4.078125q2.359375 -1.4375 5.359375 -1.4375q2.75 0 5.0 0.953125l-0.328125 2.71875q-1.0625 -0.515625 -2.109375 -0.765625q-1.03125 -0.25 -2.28125 -0.25q-2.359375 0 -4.046875 1.1875q-1.671875 1.171875 -2.546875 3.21875q-0.859375 2.046875 -0.859375 4.578125q0 4.03125 1.890625 6.515625q1.890625 2.484375 5.53125 2.484375q1.421875 0 2.46875 -0.453125l0 -5.921875l-2.84375 0l0 -2.65625l5.75 0l0 10.203125q-1.046875 0.671875 -2.53125 1.078125q-1.46875 0.40625 -3.0 0.40625zm15.100159 -0.140625q-2.359375 0 -4.046875 -1.09375q-1.671875 -1.109375 -2.53125 -2.984375q-0.84375 -1.890625 -0.84375 -4.203125q0 -2.203125 0.78125 -4.046875q0.796875 -1.84375 2.28125 -2.90625q1.484375 -1.078125 3.53125 -1.078125q2.625 0 4.265625 1.765625q1.65625 1.75 1.65625 4.859375q0 0.546875 -0.125 1.5l-9.53125 0q0.09375 2.78125 1.390625 4.234375q1.296875 1.4375 3.375 1.4375q0.984375 0 2.09375 -0.234375q1.109375 -0.25 1.9375 -0.703125l0.25 2.5q-1.75 0.953125 -4.484375 0.953125zm2.25 -10.140625q0 -1.59375 -0.796875 -2.59375q-0.78125 -1.015625 -2.25 -1.015625q-1.4375 0 -2.390625 0.90625q-0.9375 0.890625 -1.25 2.703125l6.6875 0zm12.001152 -6.171875q2.421875 0 3.71875 1.90625q1.296875 1.90625 1.296875 5.140625l0 8.953125l-2.78125 0l0 -8.609375q0 -2.5 -0.71875 -3.6875q-0.71875 -1.203125 -2.15625 -1.203125q-1.0625 0 -1.96875 0.59375q-0.890625 0.59375 -1.484375 1.640625l0 11.265625l-2.796875 0l0 -15.6875l2.375 0l0.1875 1.953125q0.671875 -1.046875 1.8125 -1.65625q1.140625 -0.609375 2.515625 -0.609375zm14.740906 16.3125q-2.359375 0 -4.046875 -1.09375q-1.671875 -1.109375 -2.53125 -2.984375q-0.84375 -1.890625 -0.84375 -4.203125q0 -2.203125 0.78125 -4.046875q0.796875 -1.84375 2.28125 -2.90625q1.484375 -1.078125 3.53125 -1.078125q2.625 0 4.265625 1.765625q1.65625 1.75 1.65625 4.859375q0 0.546875 -0.125 1.5l-9.53125 0q0.09375 2.78125 1.390625 4.234375q1.296875 1.4375 3.375 1.4375q0.984375 0 2.09375 -0.234375q1.109375 -0.25 1.9375 -0.703125l0.25 2.5q-1.75 0.953125 -4.484375 0.953125zm2.25 -10.140625q0 -1.59375 -0.796875 -2.59375q-0.78125 -1.015625 -2.25 -1.015625q-1.4375 0 -2.390625 0.90625q-0.9375 0.890625 -1.25 2.703125l6.6875 0zm5.3449097 -5.859375l2.265625 0l0.359375 2.625q1.046875 -1.53125 1.984375 -2.234375q0.953125 -0.703125 2.015625 -0.703125q0.40625 0 0.734375 0.09375l-0.296875 3.171875q-0.40625 -0.09375 -0.953125 -0.09375q-1.0625 0 -1.984375 0.53125q-0.921875 0.515625 -1.34375 1.21875l0 11.078125l-2.78125 0l0 -15.6875zm12.471268 16.0q-1.78125 0 -2.9375 -1.265625q-1.15625 -1.28125 -1.15625 -3.265625q0 -2.953125 2.46875 -4.25q2.46875 -1.296875 5.5 -1.359375q0 -2.046875 -0.609375 -2.84375q-0.609375 -0.796875 -2.046875 -0.796875q-1.859375 0 -3.78125 1.4375l-0.34375 -2.34375q2.015625 -1.625 4.671875 -1.625q2.53125 0 3.734375 1.453125q1.21875 1.453125 1.21875 4.6875l0 4.578125q0 1.828125 0.25 2.578125q0.265625 0.75 1.125 0.75l0.359375 0l-0.359375 2.265625l-0.59375 0q-1.484375 0 -2.1875 -0.53125q-0.703125 -0.546875 -1.140625 -1.765625q-0.75 1.0625 -1.84375 1.6875q-1.078125 0.609375 -2.328125 0.609375zm0.875 -2.265625q0.765625 0 1.59375 -0.59375q0.828125 -0.59375 1.40625 -1.546875l0 -3.75q-2.46875 0.125 -3.75 0.953125q-1.265625 0.8125 -1.265625 2.5q0 2.4375 2.015625 2.4375zm14.450531 2.265625q-1.8125 0 -2.703125 -1.078125q-0.875 -1.09375 -0.875 -2.65625l0 -10.046875l-2.171875 0l0.25 -2.21875l1.921875 0l0 -3.859375l2.78125 -0.296875l0 4.15625l3.390625 0l0 2.21875l-3.390625 0l0 8.921875q0 1.4375 0.53125 2.015625q0.53125 0.578125 1.84375 0.578125l0.984375 0l-0.25 2.265625l-2.3125 0zm5.098526 -22.71875l2.78125 0l0 3.171875l-2.78125 0l0 -3.171875zm0 6.71875l2.78125 0l0 15.6875l-2.78125 0l0 -15.6875zm12.246765 16.0q-2.109375 0 -3.640625 -1.0625q-1.53125 -1.078125 -2.359375 -2.921875q-0.8125 -1.859375 -0.8125 -4.171875q0 -2.296875 0.8125 -4.15625q0.828125 -1.859375 2.359375 -2.921875q1.53125 -1.078125 3.640625 -1.078125q2.078125 0 3.609375 1.078125q1.546875 1.0625 2.34375 2.921875q0.8125 1.859375 0.8125 4.15625q0 2.3125 -0.8125 4.171875q-0.796875 1.84375 -2.34375 2.921875q-1.53125 1.0625 -3.609375 1.0625zm0 -2.453125q1.859375 0 2.875 -1.5q1.03125 -1.515625 1.03125 -4.203125q0 -2.6875 -1.03125 -4.171875q-1.015625 -1.484375 -2.875 -1.484375q-1.921875 0 -2.953125 1.484375q-1.015625 1.484375 -1.015625 4.171875q0 2.71875 1.015625 4.21875q1.03125 1.484375 2.953125 1.484375zm16.010284 -13.859375q2.421875 0 3.71875 1.90625q1.296875 1.90625 1.296875 5.140625l0 8.953125l-2.78125 0l0 -8.609375q0 -2.5 -0.71875 -3.6875q-0.71875 -1.203125 -2.15625 -1.203125q-1.0625 0 -1.96875 0.59375q-0.890625 0.59375 -1.484375 1.640625l0 11.265625l-2.796875 0l0 -15.6875l2.375 0l0.1875 1.953125q0.671875 -1.046875 1.8125 -1.65625q1.140625 -0.609375 2.515625 -0.609375zm22.370789 16.453125q-2.5 0 -4.328125 -1.5q-1.828125 -1.515625 -2.8125 -4.203125q-0.96875 -2.6875 -0.96875 -6.140625q0 -3.390625 1.015625 -6.0q1.03125 -2.609375 2.875 -4.03125q1.84375 -1.421875 4.21875 -1.421875q2.421875 0 4.25 1.421875q1.828125 1.421875 2.828125 4.015625q1.015625 2.59375 1.015625 6.015625q0 3.453125 -0.96875 6.140625q-0.953125 2.6875 -2.796875 4.203125q-1.84375 1.5 -4.328125 1.5zm0 -2.921875q2.390625 0 3.6875 -2.3125q1.296875 -2.328125 1.296875 -6.609375q0 -4.1875 -1.328125 -6.359375q-1.328125 -2.1875 -3.65625 -2.1875q-2.25 0 -3.625 2.203125q-1.375 2.1875 -1.375 6.34375q0 4.28125 1.296875 6.609375q1.296875 2.3125 3.703125 2.3125zm21.553177 6.828125q-1.78125 -2.859375 -2.765625 -6.265625q-0.96875 -3.40625 -0.96875 -7.921875q0 -4.515625 0.96875 -7.921875q0.984375 -3.40625 2.765625 -6.25l2.40625 0q-1.5625 2.96875 -2.46875 6.4375q-0.890625 3.453125 -0.890625 7.734375q0 4.296875 0.890625 7.75q0.90625 3.453125 2.46875 6.4375l-2.40625 0zm7.908661 -26.765625l-1.15625 3.4375l1.0625 0l0 3.359375l-3.203125 0l0 -3.046875l1.671875 -3.75l1.625 0zm4.578125 0l-1.15625 3.4375l1.0625 0l0 3.359375l-3.203125 0l0 -3.046875l1.671875 -3.75l1.625 0zm9.349396 6.40625q2.421875 0 3.71875 1.90625q1.296875 1.90625 1.296875 5.140625l0 8.953125l-2.78125 0l0 -8.609375q0 -2.5 -0.71875 -3.6875q-0.71875 -1.203125 -2.15625 -1.203125q-1.0625 0 -1.96875 0.59375q-0.890625 0.59375 -1.484375 1.640625l0 11.265625l-2.796875 0l0 -15.6875l2.375 0l0.1875 1.953125q0.671875 -1.046875 1.8125 -1.65625q1.140625 -0.609375 2.515625 -0.609375zm19.490906 0.3125l0 15.6875l-2.375 0l-0.1875 -1.921875q-0.640625 1.0625 -1.734375 1.65625q-1.09375 0.578125 -2.390625 0.578125q-2.46875 0 -3.671875 -1.640625q-1.203125 -1.640625 -1.203125 -4.71875l0 -9.640625l2.78125 0l0 9.28125q0 2.125 0.625 3.171875q0.625 1.03125 2.09375 1.03125q1.03125 0 1.859375 -0.578125q0.828125 -0.578125 1.40625 -1.609375l0 -11.296875l2.796875 0zm3.9968872 0l2.265625 0l0.359375 2.625q1.046875 -1.53125 1.984375 -2.234375q0.953125 -0.703125 2.015625 -0.703125q0.40625 0 0.734375 0.09375l-0.296875 3.171875q-0.40625 -0.09375 -0.953125 -0.09375q-1.0625 0 -1.984375 0.53125q-0.921875 0.515625 -1.34375 1.21875l0 11.078125l-2.78125 0l0 -15.6875zm13.440033 16.0q-2.75 0 -4.765625 -1.265625l0.34375 -2.828125q2.046875 1.609375 4.21875 1.609375q1.15625 0 1.8125 -0.484375q0.65625 -0.484375 0.65625 -1.40625q0 -0.703125 -0.3125 -1.140625q-0.296875 -0.453125 -1.0 -0.875q-0.703125 -0.421875 -2.171875 -1.09375q-1.734375 -0.796875 -2.53125 -1.8125q-0.796875 -1.03125 -0.796875 -2.65625q0 -1.921875 1.34375 -3.140625q1.34375 -1.21875 3.609375 -1.21875q2.3125 0 4.03125 1.03125l-0.34375 2.578125q-0.859375 -0.5625 -1.640625 -0.828125q-0.765625 -0.28125 -1.8125 -0.28125q-1.125 0 -1.765625 0.484375q-0.640625 0.46875 -0.640625 1.328125q0 0.875 0.5625 1.328125q0.5625 0.4375 2.1875 1.171875q2.28125 1.03125 3.203125 2.078125q0.921875 1.03125 0.921875 2.71875q0 2.21875 -1.375 3.46875q-1.375 1.234375 -3.734375 1.234375zm13.973145 0q-2.359375 0 -4.046875 -1.09375q-1.671875 -1.109375 -2.53125 -2.984375q-0.84375 -1.890625 -0.84375 -4.203125q0 -2.203125 0.78125 -4.046875q0.796875 -1.84375 2.28125 -2.90625q1.484375 -1.078125 3.53125 -1.078125q2.625 0 4.265625 1.765625q1.65625 1.75 1.65625 4.859375q0 0.546875 -0.125 1.5l-9.53125 0q0.09375 2.78125 1.390625 4.234375q1.296875 1.4375 3.375 1.4375q0.984375 0 2.09375 -0.234375q1.109375 -0.25 1.9375 -0.703125l0.25 2.5q-1.75 0.953125 -4.484375 0.953125zm2.25 -10.140625q0 -1.59375 -0.796875 -2.59375q-0.78125 -1.015625 -2.25 -1.015625q-1.4375 0 -2.390625 0.90625q-0.9375 0.890625 -1.25 2.703125l6.6875 0zm5.3449097 -5.859375l2.265625 0l0.359375 2.625q1.046875 -1.53125 1.984375 -2.234375q0.953125 -0.703125 2.015625 -0.703125q0.40625 0 0.734375 0.09375l-0.296875 3.171875q-0.40625 -0.09375 -0.953125 -0.09375q-1.0625 0 -1.984375 0.53125q-0.921875 0.515625 -1.34375 1.21875l0 11.078125l-2.78125 0l0 -15.6875zm13.471252 14.984375l-5.734375 -14.984375l2.984375 0l4.1875 11.6875l3.84375 -11.6875l2.96875 0l-8.40625 23.4375l-2.984375 0l3.140625 -8.453125zm8.880676 -14.875l1.15625 -3.421875l-1.0625 0l0 -3.359375l3.203125 0l0 3.046875l-1.65625 3.734375l-1.640625 0zm5.0 0l1.15625 -3.421875l-1.0625 0l0 -3.359375l3.203125 0l0 3.046875l-1.65625 3.734375l-1.640625 0zm5.2191467 19.9375q1.53125 -3.015625 2.421875 -6.453125q0.90625 -3.4375 0.90625 -7.734375q0 -4.28125 -0.90625 -7.71875q-0.890625 -3.4375 -2.421875 -6.453125l2.375 0q1.78125 2.84375 2.75 6.234375q0.984375 3.390625 0.984375 7.9375q0 4.546875 -0.984375 7.9375q-0.96875 3.390625 -2.75 6.25l-2.375 0z" fill-rule="nonzero"></path><path fill="#ead1dc" d="m86.33071 326.81366l797.38586 0l0 370.39368l-797.38586 0z" fill-rule="evenodd"></path><path stroke="#a64d79" stroke-width="4.0" stroke-linejoin="round" stroke-linecap="butt" d="m86.33071 326.81366l797.38586 0l0 370.39368l-797.38586 0z" fill-rule="evenodd"></path><path fill="#000000" fill-opacity="0.0" d="m86.86877 255.37007l698.2677 0l0 58.45671l-698.2677 0z" fill-rule="evenodd"></path><path fill="#000000" d="m106.33752 295.5432q-2.75 0 -4.921875 -1.4375q-2.15625 -1.453125 -3.375 -4.09375q-1.21875 -2.640625 -1.21875 -6.125q0 -3.484375 1.21875 -6.125q1.21875 -2.640625 3.375 -4.078125q2.171875 -1.4375 4.921875 -1.4375q2.75 0 4.890625 1.4375q2.140625 1.4375 3.359375 4.078125q1.21875 2.640625 1.21875 6.125q0 3.484375 -1.21875 6.125q-1.21875 2.640625 -3.359375 4.09375q-2.140625 1.4375 -4.890625 1.4375zm0 -2.921875q3.0625 0 4.703125 -2.4375q1.65625 -2.453125 1.65625 -6.296875q0 -3.84375 -1.65625 -6.28125q-1.640625 -2.453125 -4.703125 -2.453125q-3.078125 0 -4.75 2.453125q-1.65625 2.4375 -1.65625 6.28125q0 3.84375 1.65625 6.296875q1.671875 2.4375 4.75 2.4375zm15.708542 2.78125q-1.796875 0 -2.65625 -1.078125q-0.859375 -1.09375 -0.859375 -2.6875l0 -20.546875l2.78125 0l0 18.875q0 1.40625 0.140625 2.0625q0.140625 0.65625 0.546875 0.890625q0.421875 0.21875 1.359375 0.21875l-0.359375 2.265625l-0.953125 0zm15.999138 -24.3125l0 24.0l-2.46875 0l-0.21875 -1.4375q-0.734375 0.859375 -1.765625 1.3125q-1.015625 0.4375 -2.234375 0.4375q-1.828125 0 -3.265625 -1.0625q-1.4374924 -1.078125 -2.2812424 -2.921875q-0.828125 -1.859375 -0.828125 -4.140625q0 -2.203125 0.78125 -4.078125q0.796875 -1.875 2.2499924 -2.984375q1.453125 -1.125 3.34375 -1.125q2.328125 0 3.90625 1.625l0 -9.625l2.78125 0zm-6.40625 21.859375q1.765625 0 2.8125 -1.390625q1.0625 -1.390625 1.0625 -4.28125q0 -2.78125 -1.0625 -4.234375q-1.046875 -1.453125 -2.8125 -1.453125q-1.078125 0 -1.953125 0.734375q-0.859375 0.734375 -1.359375 2.03125q-0.48436737 1.296875 -0.48436737 2.921875q0 1.546875 0.48436737 2.84375q0.5 1.28125 1.375 2.0625q0.890625 0.765625 1.9375 0.765625zm21.311417 10.140625q-2.78125 0 -4.53125 -1.140625q-1.734375 -1.125 -1.734375 -3.109375q0 -2.28125 2.5 -3.96875q-1.46875 -0.703125 -1.46875 -2.15625q0 -0.734375 0.4375 -1.28125q0.453125 -0.5625 1.28125 -0.890625q-1.1875 -0.828125 -1.828125 -2.234375q-0.640625 -1.40625 -0.640625 -3.109375q0 -1.71875 0.671875 -3.109375q0.671875 -1.40625 1.9375 -2.203125q1.265625 -0.796875 2.96875 -0.796875q2.046875 0 3.453125 1.15625q1.25 -1.15625 2.65625 -1.15625q0.421875 0 0.796875 0.0625l-0.28125 2.234375q-0.328125 -0.0625 -0.640625 -0.0625q-0.671875 0 -1.34375 0.296875q0.921875 1.5 0.921875 3.578125q0 1.734375 -0.671875 3.15625q-0.671875 1.421875 -1.9375 2.28125q-1.265625 0.84375 -2.953125 0.84375q-0.90625 0 -1.609375 -0.234375q-0.609375 0.265625 -0.609375 0.734375q0 0.421875 0.421875 0.671875q0.421875 0.234375 1.46875 0.546875l2.21875 0.671875q1.984375 0.609375 3.109375 1.203125q1.140625 0.59375 1.6875 1.40625q0.546875 0.8125 0.546875 2.03125q0 2.171875 -1.890625 3.375q-1.890625 1.203125 -4.9375 1.203125zm-0.40625 -13.828125q1.375 0 2.140625 -1.09375q0.765625 -1.109375 0.765625 -2.9375q0 -1.71875 -0.765625 -2.8125q-0.765625 -1.09375 -2.140625 -1.09375q-1.375 0 -2.15625 1.078125q-0.765625 1.078125 -0.765625 2.828125q0 1.828125 0.765625 2.9375q0.78125 1.09375 2.15625 1.09375zm0.609375 11.5625q1.71875 0 2.75 -0.546875q1.046875 -0.546875 1.046875 -1.609375q0 -0.859375 -0.640625 -1.359375q-0.640625 -0.484375 -2.328125 -1.0l-2.5625 -0.765625q-2.171875 1.375 -2.171875 2.875q0 1.1875 1.03125 1.796875q1.046875 0.609375 2.875 0.609375zm14.708649 -5.421875q-2.359375 0 -4.046875 -1.09375q-1.671875 -1.109375 -2.53125 -2.984375q-0.84375 -1.890625 -0.84375 -4.203125q0 -2.203125 0.78125 -4.046875q0.796875 -1.84375 2.28125 -2.90625q1.484375 -1.078125 3.53125 -1.078125q2.625 0 4.265625 1.765625q1.65625 1.75 1.65625 4.859375q0 0.546875 -0.125 1.5l-9.53125 0q0.09375 2.78125 1.390625 4.234375q1.296875 1.4375 3.375 1.4375q0.984375 0 2.09375 -0.234375q1.109375 -0.25 1.9375 -0.703125l0.25 2.5q-1.75 0.953125 -4.484375 0.953125zm2.25 -10.140625q0 -1.59375 -0.796875 -2.59375q-0.78125 -1.015625 -2.25 -1.015625q-1.4375 0 -2.390625 0.90625q-0.9375 0.890625 -1.25 2.703125l6.6875 0zm12.00116 -6.171875q2.421875 0 3.71875 1.90625q1.296875 1.90625 1.296875 5.140625l0 8.953125l-2.78125 0l0 -8.609375q0 -2.5 -0.71875 -3.6875q-0.71875 -1.203125 -2.15625 -1.203125q-1.0625 0 -1.96875 0.59375q-0.890625 0.59375 -1.484375 1.640625l0 11.265625l-2.796875 0l0 -15.6875l2.375 0l0.1875 1.953125q0.671875 -1.046875 1.8125 -1.65625q1.140625 -0.609375 2.515625 -0.609375zm14.740906 16.3125q-2.359375 0 -4.046875 -1.09375q-1.671875 -1.109375 -2.53125 -2.984375q-0.84375 -1.890625 -0.84375 -4.203125q0 -2.203125 0.78125 -4.046875q0.796875 -1.84375 2.28125 -2.90625q1.484375 -1.078125 3.53125 -1.078125q2.625 0 4.265625 1.765625q1.65625 1.75 1.65625 4.859375q0 0.546875 -0.125 1.5l-9.53125 0q0.09375 2.78125 1.390625 4.234375q1.296875 1.4375 3.375 1.4375q0.984375 0 2.09375 -0.234375q1.109375 -0.25 1.9375 -0.703125l0.25 2.5q-1.75 0.953125 -4.484375 0.953125zm2.25 -10.140625q0 -1.59375 -0.796875 -2.59375q-0.78125 -1.015625 -2.25 -1.015625q-1.4375 0 -2.390625 0.90625q-0.9375 0.890625 -1.25 2.703125l6.6875 0zm5.3449097 -5.859375l2.265625 0l0.359375 2.625q1.046875 -1.53125 1.984375 -2.234375q0.953125 -0.703125 2.015625 -0.703125q0.40625 0 0.734375 0.09375l-0.296875 3.171875q-0.40625 -0.09375 -0.953125 -0.09375q-1.0625 0 -1.984375 0.53125q-0.921875 0.515625 -1.34375 1.21875l0 11.078125l-2.78125 0l0 -15.6875zm12.471268 16.0q-1.78125 0 -2.9375 -1.265625q-1.15625 -1.28125 -1.15625 -3.265625q0 -2.953125 2.46875 -4.25q2.46875 -1.296875 5.5 -1.359375q0 -2.046875 -0.609375 -2.84375q-0.609375 -0.796875 -2.046875 -0.796875q-1.859375 0 -3.78125 1.4375l-0.34375 -2.34375q2.015625 -1.625 4.671875 -1.625q2.53125 0 3.734375 1.453125q1.21875 1.453125 1.21875 4.6875l0 4.578125q0 1.828125 0.25 2.578125q0.265625 0.75 1.125 0.75l0.359375 0l-0.359375 2.265625l-0.59375 0q-1.484375 0 -2.1875 -0.53125q-0.703125 -0.546875 -1.140625 -1.765625q-0.75 1.0625 -1.84375 1.6875q-1.078125 0.609375 -2.328125 0.609375zm0.875 -2.265625q0.765625 0 1.59375 -0.59375q0.828125 -0.59375 1.40625 -1.546875l0 -3.75q-2.46875 0.125 -3.75 0.953125q-1.265625 0.8125 -1.265625 2.5q0 2.4375 2.015625 2.4375zm14.450531 2.265625q-1.8125 0 -2.703125 -1.078125q-0.875 -1.09375 -0.875 -2.65625l0 -10.046875l-2.171875 0l0.25 -2.21875l1.921875 0l0 -3.859375l2.78125 -0.296875l0 4.15625l3.390625 0l0 2.21875l-3.390625 0l0 8.921875q0 1.4375 0.53125 2.015625q0.53125 0.578125 1.84375 0.578125l0.984375 0l-0.25 2.265625l-2.3125 0zm5.098526 -22.71875l2.78125 0l0 3.171875l-2.78125 0l0 -3.171875zm0 6.71875l2.78125 0l0 15.6875l-2.78125 0l0 -15.6875zm12.246765 16.0q-2.109375 0 -3.640625 -1.0625q-1.53125 -1.078125 -2.359375 -2.921875q-0.8125 -1.859375 -0.8125 -4.171875q0 -2.296875 0.8125 -4.15625q0.828125 -1.859375 2.359375 -2.921875q1.53125 -1.078125 3.640625 -1.078125q2.078125 0 3.609375 1.078125q1.546875 1.0625 2.34375 2.921875q0.81251526 1.859375 0.81251526 4.15625q0 2.3125 -0.81251526 4.171875q-0.796875 1.84375 -2.34375 2.921875q-1.53125 1.0625 -3.609375 1.0625zm0 -2.453125q1.859375 0 2.875 -1.5q1.03125 -1.515625 1.03125 -4.203125q0 -2.6875 -1.03125 -4.171875q-1.015625 -1.484375 -2.875 -1.484375q-1.921875 0 -2.953125 1.484375q-1.015625 1.484375 -1.015625 4.171875q0 2.71875 1.015625 4.21875q1.03125 1.484375 2.953125 1.484375zm16.0103 -13.859375q2.421875 0 3.71875 1.90625q1.296875 1.90625 1.296875 5.140625l0 8.953125l-2.78125 0l0 -8.609375q0 -2.5 -0.71875 -3.6875q-0.71875 -1.203125 -2.15625 -1.203125q-1.0625 0 -1.96875 0.59375q-0.890625 0.59375 -1.484375 1.640625l0 11.265625l-2.796875 0l0 -15.6875l2.375 0l0.1875 1.953125q0.671875 -1.046875 1.8125 -1.65625q1.140625 -0.609375 2.515625 -0.609375zm12.287781 16.3125q-2.75 0 -4.765625 -1.265625l0.34375 -2.828125q2.046875 1.609375 4.21875 1.609375q1.15625 0 1.8125 -0.484375q0.65625 -0.484375 0.65625 -1.40625q0 -0.703125 -0.3125 -1.140625q-0.296875 -0.453125 -1.0 -0.875q-0.703125 -0.421875 -2.171875 -1.09375q-1.734375 -0.796875 -2.53125 -1.8125q-0.796875 -1.03125 -0.796875 -2.65625q0 -1.921875 1.34375 -3.140625q1.34375 -1.21875 3.609375 -1.21875q2.3125 0 4.03125 1.03125l-0.34375 2.578125q-0.859375 -0.5625 -1.640625 -0.828125q-0.765625 -0.28125 -1.8125 -0.28125q-1.125 0 -1.765625 0.484375q-0.640625 0.46875 -0.640625 1.328125q0 0.875 0.5625 1.328125q0.5625 0.4375 2.1875 1.171875q2.28125 1.03125 3.203125 2.078125q0.921875 1.03125 0.921875 2.71875q0 2.21875 -1.375 3.46875q-1.375 1.234375 -3.734375 1.234375z" fill-rule="nonzero"></path><defs><linearGradient id="p.1" gradientUnits="userSpaceOnUse" gradientTransform="matrix(0.0 10.193419391213627 10.193419391213627 0.0 0.0 0.0)" spreadMethod="pad" x1="23.455633989057713" y1="39.49588677479366" x2="23.455597779963" y2="49.68930616594298"><stop offset="0.0" stop-color="#fdecdb"></stop><stop offset="1.0" stop-color="#f0a963"></stop></linearGradient></defs><path fill="url(#p.1)" d="m428.5748 239.09311l0 38.204712l-25.97638 0l51.95276 38.204742l51.95276 -38.204742l-25.97638 0l0 -38.204712z" fill-rule="evenodd"></path><path fill="#000000" fill-opacity="0.0" d="m518.8688 247.37007l291.33856 0l0 58.45671l-291.33856 0z" fill-rule="evenodd"></path><path fill="#000000" d="m539.3219 287.5432q-3.234375 0 -5.609375 -1.484375q-2.359375 -1.5 -3.625 -4.140625q-1.265625 -2.640625 -1.265625 -6.03125q0 -3.484375 1.34375 -6.125q1.34375 -2.640625 3.703125 -4.078125q2.359375 -1.4375 5.359375 -1.4375q2.75 0 5.0 0.953125l-0.328125 2.71875q-1.0625 -0.515625 -2.109375 -0.765625q-1.03125 -0.25 -2.28125 -0.25q-2.359375 0 -4.046875 1.1875q-1.671875 1.171875 -2.546875 3.21875q-0.859375 2.046875 -0.859375 4.578125q0 4.03125 1.890625 6.515625q1.890625 2.484375 5.53125 2.484375q1.421875 0 2.46875 -0.453125l0 -5.921875l-2.84375 0l0 -2.65625l5.75 0l0 10.203125q-1.046875 0.671875 -2.53125 1.078125q-1.46875 0.40625 -3.0 0.40625zm18.022034 0q-3.109375 0 -5.421875 -1.421875q-2.296875 -1.4375 -3.5625 -4.078125q-1.265625 -2.640625 -1.265625 -6.15625q0 -3.484375 1.296875 -6.125q1.296875 -2.640625 3.59375 -4.078125q2.3125 -1.4375 5.234375 -1.4375q2.546875 0 4.859375 0.953125l-0.328125 2.71875q-2.046875 -1.015625 -3.96875 -1.015625q-2.359375 0 -4.046875 1.1875q-1.671875 1.171875 -2.546875 3.21875q-0.859375 2.046875 -0.859375 4.578125q0 2.53125 0.859375 4.578125q0.875 2.046875 2.546875 3.234375q1.6875 1.1875 4.09375 1.1875q2.078125 0 3.921875 -0.96875l0.328125 2.71875q-2.046875 0.90625 -4.734375 0.90625zm11.897888 -16.140625l3.109375 0l2.46875 12.578125l2.75 -12.09375l2.65625 0l2.78125 12.09375l2.46875 -12.578125l3.09375 0l-4.0 15.6875l-2.8125 0l-2.84375 -11.609375l-2.859375 11.609375l-2.78125 0l-4.03125 -15.6875zm28.194214 -0.3125q2.4375 0 3.734375 1.90625q1.296875 1.90625 1.296875 5.140625l0 8.953125l-2.796875 0l0 -8.609375q0 -2.5 -0.703125 -3.65625q-0.703125 -1.171875 -2.171875 -1.171875q-1.09375 0 -1.96875 0.59375q-0.875 0.59375 -1.484375 1.640625l0 11.203125l-2.78125 0l0 -24.0l2.78125 0l0 9.984375q0.671875 -0.921875 1.75 -1.453125q1.09375 -0.53125 2.34375 -0.53125zm14.778137 16.3125q-2.359375 0 -4.046875 -1.09375q-1.671875 -1.109375 -2.53125 -2.984375q-0.84375 -1.890625 -0.84375 -4.203125q0 -2.203125 0.78125 -4.046875q0.796875 -1.84375 2.28125 -2.90625q1.484375 -1.078125 3.53125 -1.078125q2.625 0 4.265625 1.765625q1.65625 1.75 1.65625 4.859375q0 0.546875 -0.125 1.5l-9.53125 0q0.09375 2.78125 1.390625 4.234375q1.296875 1.4375 3.375 1.4375q0.984375 0 2.09375 -0.234375q1.109375 -0.25 1.9375 -0.703125l0.25 2.5q-1.75 0.953125 -4.484375 0.953125zm2.25 -10.140625q0 -1.59375 -0.796875 -2.59375q-0.78125 -1.015625 -2.25 -1.015625q-1.4375 0 -2.390625 0.90625q-0.9375 0.890625 -1.25 2.703125l6.6875 0zm12.00116 -6.171875q2.421875 0 3.71875 1.90625q1.296875 1.90625 1.296875 5.140625l0 8.953125l-2.78125 0l0 -8.609375q0 -2.5 -0.71875 -3.6875q-0.71875 -1.203125 -2.15625 -1.203125q-1.0625 0 -1.96875 0.59375q-0.890625 0.59375 -1.484375 1.640625l0 11.265625l-2.796875 0l0 -15.6875l2.375 0l0.1875 1.953125q0.671875 -1.046875 1.8125 -1.65625q1.140625 -0.609375 2.515625 -0.609375zm21.152039 0q2.421875 0 3.71875 1.90625q1.296875 1.90625 1.296875 5.140625l0 8.953125l-2.78125 0l0 -8.609375q0 -2.5 -0.71875 -3.6875q-0.71875 -1.203125 -2.15625 -1.203125q-1.0625 0 -1.96875 0.59375q-0.890625 0.59375 -1.484375 1.640625l0 11.265625l-2.796875 0l0 -15.6875l2.375 0l0.1875 1.953125q0.671875 -1.046875 1.8125 -1.65625q1.140625 -0.609375 2.515625 -0.609375zm19.490906 0.3125l0 15.6875l-2.375 0l-0.1875 -1.921875q-0.640625 1.0625 -1.734375 1.65625q-1.09375 0.578125 -2.390625 0.578125q-2.46875 0 -3.671875 -1.640625q-1.203125 -1.640625 -1.203125 -4.71875l0 -9.640625l2.78125 0l0 9.28125q0 2.125 0.625 3.171875q0.625 1.03125 2.09375 1.03125q1.03125 0 1.859375 -0.578125q0.828125 -0.578125 1.40625 -1.609375l0 -11.296875l2.796875 0zm3.9968872 0l2.265625 0l0.359375 2.625q1.046875 -1.53125 1.984375 -2.234375q0.953125 -0.703125 2.015625 -0.703125q0.40625 0 0.734375 0.09375l-0.296875 3.171875q-0.40625 -0.09375 -0.953125 -0.09375q-1.0625 0 -1.984375 0.53125q-0.921875 0.515625 -1.34375 1.21875l0 11.078125l-2.78125 0l0 -15.6875zm13.440002 16.0q-2.75 0 -4.765625 -1.265625l0.34375 -2.828125q2.046875 1.609375 4.21875 1.609375q1.15625 0 1.8125 -0.484375q0.65625 -0.484375 0.65625 -1.40625q0 -0.703125 -0.3125 -1.140625q-0.296875 -0.453125 -1.0 -0.875q-0.703125 -0.421875 -2.171875 -1.09375q-1.734375 -0.796875 -2.53125 -1.8125q-0.796875 -1.03125 -0.796875 -2.65625q0 -1.921875 1.34375 -3.140625q1.34375 -1.21875 3.609375 -1.21875q2.3125 0 4.03125 1.03125l-0.34375 2.578125q-0.859375 -0.5625 -1.640625 -0.828125q-0.765625 -0.28125 -1.8125 -0.28125q-1.125 0 -1.765625 0.484375q-0.640625 0.46875 -0.640625 1.328125q0 0.875 0.5625 1.328125q0.5625 0.4375 2.1875 1.171875q2.28125 1.03125 3.203125 2.078125q0.921875 1.03125 0.921875 2.71875q0 2.21875 -1.375 3.46875q-1.375 1.234375 -3.734375 1.234375zm13.973145 0q-2.359375 0 -4.046875 -1.09375q-1.671875 -1.109375 -2.53125 -2.984375q-0.84375 -1.890625 -0.84375 -4.203125q0 -2.203125 0.78125 -4.046875q0.796875 -1.84375 2.28125 -2.90625q1.484375 -1.078125 3.53125 -1.078125q2.625 0 4.265625 1.765625q1.65625 1.75 1.65625 4.859375q0 0.546875 -0.125 1.5l-9.53125 0q0.09375 2.78125 1.390625 4.234375q1.296875 1.4375 3.375 1.4375q0.984375 0 2.09375 -0.234375q1.109375 -0.25 1.9375 -0.703125l0.25 2.5q-1.75 0.953125 -4.484375 0.953125zm2.25 -10.140625q0 -1.59375 -0.796875 -2.59375q-0.78125 -1.015625 -2.25 -1.015625q-1.4375 0 -2.390625 0.90625q-0.9375 0.890625 -1.25 2.703125l6.6875 0zm5.3449097 -5.859375l2.265625 0l0.359375 2.625q1.046875 -1.53125 1.984375 -2.234375q0.953125 -0.703125 2.015625 -0.703125q0.40625 0 0.734375 0.09375l-0.296875 3.171875q-0.40625 -0.09375 -0.953125 -0.09375q-1.0625 0 -1.984375 0.53125q-0.921875 0.515625 -1.34375 1.21875l0 11.078125l-2.78125 0l0 -15.6875zm13.471313 14.984375l-5.734375 -14.984375l2.984375 0l4.1875 11.6875l3.84375 -11.6875l2.96875 0l-8.40625 23.4375l-2.984375 0l3.140625 -8.453125zm16.447998 -21.703125l2.78125 0l0 3.171875l-2.78125 0l0 -3.171875zm0 6.71875l2.78125 0l0 15.6875l-2.78125 0l0 -15.6875zm10.496765 16.0q-2.75 0 -4.765625 -1.265625l0.34375 -2.828125q2.046875 1.609375 4.21875 1.609375q1.15625 0 1.8125 -0.484375q0.65625 -0.484375 0.65625 -1.40625q0 -0.703125 -0.3125 -1.140625q-0.296875 -0.453125 -1.0 -0.875q-0.703125 -0.421875 -2.171875 -1.09375q-1.734375 -0.796875 -2.53125 -1.8125q-0.796875 -1.03125 -0.796875 -2.65625q0 -1.921875 1.34375 -3.140625q1.34375 -1.21875 3.609375 -1.21875q2.3125 0 4.03125 1.03125l-0.34375 2.578125q-0.859375 -0.5625 -1.640625 -0.828125q-0.765625 -0.28125 -1.8125 -0.28125q-1.125 0 -1.765625 0.484375q-0.640625 0.46875 -0.640625 1.328125q0 0.875 0.5625 1.328125q0.5625 0.4375 2.1875 1.171875q2.28125 1.03125 3.203125 2.078125q0.921875 1.03125 0.921875 2.71875q0 2.21875 -1.375 3.46875q-1.375 1.234375 -3.734375 1.234375zm14.524902 -13.78125l-2.171875 0l0.3125 -2.21875l1.859375 0l0 -4.1875q0 -1.859375 1.046875 -2.984375q1.0625 -1.140625 3.015625 -1.140625q1.1875 0 2.078125 0.359375l-0.34375 2.390625q-0.671875 -0.21875 -1.28125 -0.21875q-0.84375 0 -1.296875 0.53125q-0.4375 0.515625 -0.4375 1.484375l0 3.765625l3.453125 0l0 2.21875l-3.453125 0l0 13.46875l-2.78125 0l0 -13.46875zm19.750305 -2.21875l0 15.6875l-2.375 0l-0.1875 -1.921875q-0.640625 1.0625 -1.734375 1.65625q-1.09375 0.578125 -2.390625 0.578125q-2.46875 0 -3.671875 -1.640625q-1.203125 -1.640625 -1.203125 -4.71875l0 -9.640625l2.78125 0l0 9.28125q0 2.125 0.625 3.171875q0.625 1.03125 2.09375 1.03125q1.03125 0 1.859375 -0.578125q0.828125 -0.578125 1.40625 -1.609375l0 -11.296875l2.796875 0zm7.450012 16.0q-1.796875 0 -2.65625 -1.078125q-0.859375 -1.09375 -0.859375 -2.6875l0 -20.546875l2.78125 0l0 18.875q0 1.40625 0.140625 2.0625q0.140625 0.65625 0.546875 0.890625q0.421875 0.21875 1.359375 0.21875l-0.359375 2.265625l-0.953125 0zm7.2960205 0q-1.796875 0 -2.65625 -1.078125q-0.859375 -1.09375 -0.859375 -2.6875l0 -20.546875l2.78125 0l0 18.875q0 1.40625 0.140625 2.0625q0.140625 0.65625 0.546875 0.890625q0.421875 0.21875 1.359375 0.21875l-0.359375 2.265625l-0.953125 0z" fill-rule="nonzero"></path></g></svg>

