<?xml version="1.0" standalone="yes"?>

<svg version="1.1" viewBox="0.0 0.0 960.0 720.0" fill="none" stroke="none" stroke-linecap="square" stroke-miterlimit="10" xmlns="http://www.w3.org/2000/svg" xmlns:xlink="http://www.w3.org/1999/xlink"><clipPath id="p.0"><path d="m0 0l960.0 0l0 720.0l-960.0 0l0 -720.0z" clip-rule="nonzero"></path></clipPath><g clip-path="url(#p.0)"><path fill="#000000" fill-opacity="0.0" d="m0 0l960.0 0l0 720.0l-960.0 0z" fill-rule="evenodd"></path><path fill="#000000" fill-opacity="0.0" d="m217.92914 77.59055l464.0 0l0 564.81885l-464.0 0z" fill-rule="evenodd"></path><path stroke="#e06666" stroke-width="4.0" stroke-linejoin="round" stroke-linecap="butt" d="m217.92914 77.59055l464.0 0l0 564.81885l-464.0 0z" fill-rule="evenodd"></path><path fill="#d9ead3" d="m361.92914 207.96063l176.0 0l0 89.73227l-176.0 0z" fill-rule="evenodd"></path><path stroke="#93c47d" stroke-width="4.0" stroke-linejoin="round" stroke-linecap="butt" d="m361.92914 207.96063l176.0 0l0 89.73227l-176.0 0z" fill-rule="evenodd"></path><path fill="#000000" d="m431.00916 267.78928q-3.875 0 -6.765625 -1.78125q-2.875 -1.78125 -4.453125 -5.078125q-1.578125 -3.296875 -1.578125 -7.703125q0 -4.359375 1.609375 -7.65625q1.625 -3.296875 4.5 -5.09375q2.890625 -1.8125 6.53125 -1.8125q3.203125 0 6.078125 1.203125l-0.40625 3.40625q-2.5625 -1.28125 -4.953125 -1.28125q-2.96875 0 -5.0625 1.484375q-2.09375 1.46875 -3.1875 4.03125q-1.078125 2.5625 -1.078125 5.71875q0 3.15625 1.078125 5.71875q1.09375 2.5625 3.1875 4.046875q2.09375 1.46875 5.09375 1.46875q2.609375 0 4.921875 -1.1875l0.40625 3.390625q-2.5625 1.125 -5.921875 1.125zm9.913116 -28.5625l7.203125 0q4.40625 0 6.859375 2.328125q2.46875 2.3125 2.46875 6.75q0 4.4375 -2.46875 6.78125q-2.453125 2.34375 -6.859375 2.34375l-3.515625 0l0 9.796875l-3.6875 0l0 -28.0zm6.890625 14.84375q5.84375 0 5.84375 -5.765625q0 -5.765625 -5.84375 -5.765625l-3.203125 0l0 11.53125l3.203125 0zm22.668732 13.71875q-5.078125 0 -7.515625 -3.03125q-2.4375 -3.046875 -2.4375 -8.609375l0 -16.921875l3.640625 0l0 15.875q0 2.921875 0.453125 4.921875q0.46875 2.0 1.859375 3.21875q1.40625 1.21875 4.0 1.21875q2.640625 0 4.046875 -1.21875q1.40625 -1.21875 1.859375 -3.21875q0.46875 -2.0 0.46875 -4.921875l0 -15.875l3.625 0l0 16.921875q0 5.59375 -2.4375 8.625q-2.4375 3.015625 -7.5625 3.015625z" fill-rule="nonzero"></path><path fill="#d9ead3" d="m281.92914 170.39633l32.0 0l0 439.99997l-32.0 0z" fill-rule="evenodd"></path><path stroke="#93c47d" stroke-width="4.0" stroke-linejoin="round" stroke-linecap="butt" d="m281.92914 170.39633l32.0 0l0 439.99997l-32.0 0z" fill-rule="evenodd"></path><path fill="#d9ead3" d="m585.92914 170.39633l32.0 0l0 439.99997l-32.0 0z" fill-rule="evenodd"></path><path stroke="#93c47d" stroke-width="4.0" stroke-linejoin="round" stroke-linecap="butt" d="m585.92914 170.39633l32.0 0l0 439.99997l-32.0 0z" fill-rule="evenodd"></path><defs><linearGradient id="p.1" gradientUnits="userSpaceOnUse" gradientTransform="matrix(7.483376426226059 0.0 0.0 7.483376426226059 0.0 0.0)" spreadMethod="pad" x1="43.01923563941575" y1="45.61559353341571" x2="43.01920823834947" y2="53.0989699595916"><stop offset="0.0" stop-color="#fdecdb"></stop><stop offset="1.0" stop-color="#f0a963"></stop></linearGradient></defs><path fill="url(#p.1)" d="m321.92914 355.3596l228.0 0l0 -14.0l28.0 28.0l-28.0 28.0l0 -14.0l-228.0 0z" fill-rule="evenodd"></path><defs><linearGradient id="p.2" gradientUnits="userSpaceOnUse" gradientTransform="matrix(7.483322993956059 0.0 0.0 7.483322993956059 0.0 0.0)" spreadMethod="pad" x1="72.95276901707837" y1="67.66996464495983" x2="72.95274161581644" y2="75.15328763886572"><stop offset="0.0" stop-color="#fdecdb"></stop><stop offset="1.0" stop-color="#f0a963"></stop></linearGradient></defs><path fill="url(#p.2)" d="m545.92914 520.3963l16.0 0l0 -13.9999695l16.0 27.99997l-16.0 28.0l0 -14.0l-16.0 0z" fill-rule="evenodd"></path><path fill="#000000" fill-opacity="0.0" d="m185.92914 130.39633l224.0 0l0 32.0l-224.0 0z" fill-rule="evenodd"></path><path fill="#000000" d="m273.2298 132.79633l4.125 0l11.078125 20.484375l0 -20.484375l3.640625 0l0 28.0l-3.40625 0l-11.796875 -21.640625l0 21.640625l-3.640625 0l0 -28.0zm24.432465 0l3.6875 0l0 28.0l-3.6875 0l0 -28.0zm20.646881 28.5625q-3.875 0 -6.765625 -1.78125q-2.875 -1.78125 -4.453125 -5.078125q-1.578125 -3.296875 -1.578125 -7.703125q0 -4.359375 1.609375 -7.65625q1.625 -3.296875 4.5 -5.09375q2.890625 -1.8125 6.53125 -1.8125q3.203125 0 6.078125 1.203125l-0.40625 3.40625q-2.5625 -1.28125 -4.953125 -1.28125q-2.96875 0 -5.0625 1.484375q-2.09375 1.46875 -3.1875 4.03125q-1.078125 2.5625 -1.078125 5.71875q0 3.15625 1.078125 5.71875q1.09375 2.5625 3.1875 4.046875q2.09375 1.46875 5.09375 1.46875q2.609375 0 4.921875 -1.1875l0.40625 3.390625q-2.5625 1.125 -5.921875 1.125z" fill-rule="nonzero"></path><path fill="#000000" fill-opacity="0.0" d="m489.92914 130.39633l224.0 0l0 32.0l-224.0 0z" fill-rule="evenodd"></path><path fill="#000000" d="m569.051 132.79633l7.203125 0q4.390625 0 6.84375 2.1875q2.46875 2.171875 2.46875 6.375q0 2.390625 -1.140625 4.34375q-1.140625 1.9375 -3.171875 3.046875l5.59375 12.046875l-4.3125 0l-5.0 -10.953125q-0.640625 0.078125 -1.328125 0.078125l-3.515625 0l0 10.875l-3.640625 0l0 -28.0zm6.875 13.765625q3.046875 0 4.4375 -1.3125q1.40625 -1.328125 1.40625 -3.890625q0 -2.609375 -1.40625 -3.921875q-1.390625 -1.328125 -4.4375 -1.328125l-3.234375 0l0 10.453125l3.234375 0zm26.99939 6.640625l-8.671875 0l-2.25 7.59375l-3.921875 0l8.609375 -28.0l3.765625 0l8.59375 28.0l-3.875 0l-2.25 -7.59375zm-1.0 -3.40625l-3.359375 -11.359375l-3.3125 11.359375l6.671875 0zm30.443726 11.0l-1.84375 -20.234375l-6.75 14.4375l-6.765625 -14.4375l-1.875 20.234375l-3.890625 0l3.046875 -28.0l3.078125 0l6.40625 14.4375l6.390625 -14.4375l3.078125 0l3.046875 28.0l-3.921875 0z" fill-rule="nonzero"></path><path fill="#000000" fill-opacity="0.0" d="m121.92913 234.39633l688.0 0" fill-rule="evenodd"></path><path stroke="#000000" stroke-width="4.0" stroke-linejoin="round" stroke-linecap="butt" stroke-dasharray="16.0,12.0" d="m144.44223 234.39633l641.48694 0" fill-rule="evenodd"></path><path stroke="#000000" stroke-width="4.0" stroke-linecap="butt" d="m144.44225 234.39633l-9.513107 -6.661148l-9.513107 6.661148l9.513107 6.661148z" fill-rule="evenodd"></path><path fill="#000000" stroke="#000000" stroke-width="4.0" stroke-linecap="butt" d="m785.92914 241.00325l18.152405 -6.6069183l-18.152405 -6.6069336z" fill-rule="evenodd"></path><path fill="#000000" fill-opacity="0.0" d="m689.92914 170.39633l216.0 0l0 56.0l-216.0 0z" fill-rule="evenodd"></path><path fill="#000000" d="m742.6098 184.79633l3.640625 0l0 24.6875l10.671875 0l0 3.3125l-14.3125 0l0 -28.0zm20.637512 28.40625q-2.234375 0 -3.6875 -1.59375q-1.4375 -1.609375 -1.4375 -4.09375q0 -3.671875 3.078125 -5.296875q3.09375 -1.625 6.890625 -1.703125q0 -2.5625 -0.765625 -3.5625q-0.75 -1.0 -2.5625 -1.0q-2.3125 0 -4.71875 1.796875l-0.4375 -2.90625q2.515625 -2.046875 5.84375 -2.046875q3.15625 0 4.671875 1.828125q1.53125 1.8125 1.53125 5.859375l0 5.71875q0 2.28125 0.3125 3.21875q0.328125 0.9375 1.40625 0.9375l0.4375 0l-0.4375 2.84375l-0.765625 0q-1.84375 0 -2.71875 -0.671875q-0.875 -0.6875 -1.4375 -2.21875q-0.921875 1.328125 -2.28125 2.109375q-1.359375 0.78125 -2.921875 0.78125zm1.078125 -2.84375q0.96875 0 2.0 -0.734375q1.046875 -0.75 1.765625 -1.953125l0 -4.671875q-3.078125 0.15625 -4.6875 1.1875q-1.59375 1.015625 -1.59375 3.125q0 3.046875 2.515625 3.046875zm18.078735 2.84375q-2.28125 0 -3.375 -1.359375q-1.09375 -1.359375 -1.09375 -3.328125l0 -12.5625l-2.71875 0l0.3125 -2.75l2.40625 0l0 -4.84375l3.46875 -0.359375l0 5.203125l4.25 0l0 2.75l-4.25 0l0 11.15625q0 1.8125 0.65625 2.53125q0.671875 0.71875 2.3125 0.71875l1.234375 0l-0.3125 2.84375l-2.890625 0zm14.404358 0q-2.953125 0 -5.0625 -1.375q-2.09375 -1.390625 -3.15625 -3.75q-1.0625 -2.359375 -1.0625 -5.234375q0 -2.765625 0.984375 -5.0625q0.984375 -2.296875 2.84375 -3.640625q1.859375 -1.34375 4.40625 -1.34375q3.28125 0 5.34375 2.203125q2.0625 2.203125 2.0625 6.078125q0 0.671875 -0.15625 1.875l-11.921875 0q0.125 3.484375 1.734375 5.28125q1.625 1.796875 4.21875 1.796875q1.25 0 2.625 -0.296875q1.375 -0.296875 2.421875 -0.859375l0.3125 3.125q-2.1875 1.203125 -5.59375 1.203125zm2.796875 -12.6875q0 -2.0 -0.984375 -3.25q-0.96875 -1.265625 -2.8125 -1.265625q-1.796875 0 -2.984375 1.125q-1.171875 1.109375 -1.578125 3.390625l8.359375 0zm14.997498 -7.71875q3.046875 0 4.656189 2.390625q1.625 2.375 1.625 6.40625l0 11.203125l-3.468689 0l0 -10.765625q0 -3.109375 -0.90625 -4.609375q-0.90625 -1.5 -2.703125 -1.5q-1.3125 0 -2.4375 0.734375q-1.125 0.734375 -1.875 2.0625l0 14.078125l-3.484375 0l0 -19.59375l2.953125 0l0.25 2.4375q0.84375 -1.328125 2.25 -2.078125q1.421875 -0.765625 3.140625 -0.765625zm18.164307 20.40625q-4.484375 0 -6.8125 -2.8125q-2.3125 -2.828125 -2.3125 -7.28125q0 -4.59375 2.3125 -7.453125q2.328125 -2.859375 6.890625 -2.859375q2.4375 0 4.359375 1.0l-0.5625 3.078125q-1.796875 -0.953125 -3.75 -0.953125q-2.6875 0 -4.1875 1.859375q-1.5 1.859375 -1.5 5.171875q0 3.328125 1.53125 5.25q1.546875 1.90625 4.265625 1.90625q2.09375 0 3.6875 -0.953125l0.484375 3.125q-0.796875 0.390625 -2.0 0.65625q-1.203125 0.265625 -2.40625 0.265625zm12.634338 -1.28125l-7.15625 -18.71875l3.71875 0l5.25 14.59375l4.796875 -14.59375l3.71875 0l-10.515625 29.28125l-3.71875 0l3.90625 -10.5625z" fill-rule="nonzero"></path><path fill="#000000" fill-opacity="0.0" d="m321.92914 217.35928l32.0 0" fill-rule="evenodd"></path><path stroke="#f6b26b" stroke-width="4.0" stroke-linejoin="round" stroke-linecap="butt" d="m321.92914 217.3593l18.291656 0" fill-rule="evenodd"></path><path fill="#f6b26b" stroke="#f6b26b" stroke-width="4.0" stroke-linecap="butt" d="m340.2208 217.3593l-4.498352 4.4983215l12.35907 -4.4983215l-12.35907 -4.498337z" fill-rule="evenodd"></path><path fill="#000000" fill-opacity="0.0" d="m233.92914 170.39633l224.0 0l0 32.0l-224.0 0z" fill-rule="evenodd"></path><path fill="#000000" d="m322.04422 183.1707l1.703125 0l0.265625 1.96875q0.78125 -1.140625 1.484375 -1.671875q0.71875 -0.53125 1.515625 -0.53125q0.296875 0 0.546875 0.078125l-0.21875 2.375q-0.3125 -0.078125 -0.71875 -0.078125q-0.796875 0 -1.5 0.40625q-0.6875 0.390625 -1.0 0.921875l0 8.296875l-2.078125 0l0 -11.765625zm11.923737 12.0q-1.78125 0 -3.046875 -0.828125q-1.25 -0.828125 -1.890625 -2.234375q-0.640625 -1.421875 -0.640625 -3.140625q0 -1.65625 0.59375 -3.03125q0.59375 -1.390625 1.703125 -2.1875q1.125 -0.8125 2.65625 -0.8125q1.96875 0 3.203125 1.328125q1.234375 1.3125 1.234375 3.640625q0 0.40625 -0.09375 1.125l-7.15625 0q0.078125 2.09375 1.046875 3.171875q0.96875 1.078125 2.53125 1.078125q0.75 0 1.578125 -0.171875q0.828125 -0.1875 1.453125 -0.53125l0.1875 1.875q-1.328125 0.71875 -3.359375 0.71875zm1.671875 -7.609375q0 -1.1875 -0.59375 -1.9375q-0.578125 -0.765625 -1.6875 -0.765625q-1.078125 0 -1.78125 0.671875q-0.703125 0.671875 -0.953125 2.03125l5.015625 0zm6.2859497 7.609375q-1.34375 0 -2.203125 -0.953125q-0.859375 -0.96875 -0.859375 -2.453125q0 -2.203125 1.84375 -3.171875q1.84375 -0.96875 4.125 -1.03125q0 -1.53125 -0.453125 -2.125q-0.453125 -0.609375 -1.53125 -0.609375q-1.390625 0 -2.828125 1.078125l-0.265625 -1.75q1.5 -1.21875 3.5 -1.21875q1.890625 0 2.796875 1.09375q0.921875 1.09375 0.921875 3.515625l0 3.4375q0 1.359375 0.1875 1.921875q0.203125 0.5625 0.84375 0.5625l0.265625 0l-0.265625 1.703125l-0.453125 0q-1.109375 0 -1.640625 -0.40625q-0.515625 -0.40625 -0.859375 -1.3125q-0.546875 0.78125 -1.375 1.25q-0.8125 0.46875 -1.75 0.46875zm0.65625 -1.703125q0.578125 0 1.203125 -0.4375q0.625 -0.453125 1.046875 -1.171875l0 -2.796875q-1.84375 0.09375 -2.8125 0.703125q-0.953125 0.609375 -0.953125 1.890625q0 1.8125 1.515625 1.8125zm16.603485 -16.53125l0 18.0l-1.84375 0l-0.171875 -1.078125q-0.546875 0.640625 -1.3125 0.984375q-0.765625 0.328125 -1.6875 0.328125q-1.359375 0 -2.453125 -0.796875q-1.078125 -0.8125 -1.703125 -2.203125q-0.609375 -1.390625 -0.609375 -3.09375q0 -1.65625 0.578125 -3.046875q0.59375 -1.40625 1.6875 -2.25q1.09375 -0.84375 2.5 -0.84375q1.75 0 2.9375 1.21875l0 -7.21875l2.078125 0zm-4.796875 16.390625q1.328125 0 2.109375 -1.046875q0.796875 -1.046875 0.796875 -3.203125q0 -2.078125 -0.796875 -3.171875q-0.78125 -1.09375 -2.109375 -1.09375q-0.8125 0 -1.46875 0.546875q-0.640625 0.546875 -1.015625 1.53125q-0.375 0.96875 -0.375 2.1875q0 1.15625 0.375 2.125q0.375 0.96875 1.03125 1.546875q0.65625 0.578125 1.453125 0.578125zm10.511078 1.078125l-4.296875 -11.234375l2.234375 0l3.140625 8.765625l2.890625 -8.765625l2.21875 0l-6.3125 17.578125l-2.21875 0l2.34375 -6.34375z" fill-rule="nonzero"></path><path fill="#000000" fill-opacity="0.0" d="m321.92914 281.35928l32.0 0" fill-rule="evenodd"></path><path stroke="#f6b26b" stroke-width="4.0" stroke-linejoin="round" stroke-linecap="butt" d="m335.63748 281.35928l18.291656 0" fill-rule="evenodd"></path><path fill="#f6b26b" stroke="#f6b26b" stroke-width="4.0" stroke-linecap="butt" d="m335.63748 281.35928l4.4983215 -4.4983215l-12.35907 4.4983215l12.35907 4.498352z" fill-rule="evenodd"></path><path fill="#000000" fill-opacity="0.0" d="m121.92913 298.39633l688.0 0" fill-rule="evenodd"></path><path stroke="#000000" stroke-width="4.0" stroke-linejoin="round" stroke-linecap="butt" stroke-dasharray="16.0,12.0" d="m121.92913 298.39633l664.0 0" fill-rule="evenodd"></path><path fill="#000000" stroke="#000000" stroke-width="4.0" stroke-linecap="butt" d="m785.92914 305.00327l18.152405 -6.6069336l-18.152405 -6.6069336z" fill-rule="evenodd"></path><path fill="#000000" fill-opacity="0.0" d="m121.92913 402.39633l688.0 0" fill-rule="evenodd"></path><path stroke="#000000" stroke-width="4.0" stroke-linejoin="round" stroke-linecap="butt" stroke-dasharray="16.0,12.0" d="m121.92913 402.39633l664.0 0" fill-rule="evenodd"></path><path fill="#000000" stroke="#000000" stroke-width="4.0" stroke-linecap="butt" d="m785.92914 409.00327l18.152405 -6.6069336l-18.152405 -6.6069336z" fill-rule="evenodd"></path><path fill="#d9ead3" d="m361.92914 463.96063l176.0 0l0 89.7323l-176.0 0z" fill-rule="evenodd"></path><path stroke="#93c47d" stroke-width="4.0" stroke-linejoin="round" stroke-linecap="butt" d="m361.92914 463.96063l176.0 0l0 89.7323l-176.0 0z" fill-rule="evenodd"></path><path fill="#000000" d="m431.00916 523.78925q-3.875 0 -6.765625 -1.78125q-2.875 -1.78125 -4.453125 -5.078125q-1.578125 -3.296875 -1.578125 -7.7030945q0 -4.359375 1.609375 -7.65625q1.625 -3.296875 4.5 -5.09375q2.890625 -1.8125 6.53125 -1.8125q3.203125 0 6.078125 1.203125l-0.40625 3.40625q-2.5625 -1.28125 -4.953125 -1.28125q-2.96875 0 -5.0625 1.484375q-2.09375 1.46875 -3.1875 4.03125q-1.078125 2.5625 -1.078125 5.71875q0 3.1562195 1.078125 5.7187195q1.09375 2.5625 3.1875 4.046875q2.09375 1.46875 5.09375 1.46875q2.609375 0 4.921875 -1.1875l0.40625 3.390625q-2.5625 1.125 -5.921875 1.125zm9.913116 -28.56247l7.203125 0q4.40625 0 6.859375 2.328125q2.46875 2.3125 2.46875 6.75q0 4.4375 -2.46875 6.78125q-2.453125 2.3437195 -6.859375 2.3437195l-3.515625 0l0 9.796875l-3.6875 0l0 -27.99997zm6.890625 14.84375q5.84375 0 5.84375 -5.765625q0 -5.765625 -5.84375 -5.765625l-3.203125 0l0 11.53125l3.203125 0zm22.668732 13.7187195q-5.078125 0 -7.515625 -3.03125q-2.4375 -3.046875 -2.4375 -8.609375l0 -16.921844l3.640625 0l0 15.875q0 2.9218445 0.453125 4.9218445q0.46875 2.0 1.859375 3.21875q1.40625 1.21875 4.0 1.21875q2.640625 0 4.046875 -1.21875q1.40625 -1.21875 1.859375 -3.21875q0.46875 -2.0 0.46875 -4.9218445l0 -15.875l3.625 0l0 16.921844q0 5.59375 -2.4375 8.625q-2.4375 3.015625 -7.5625 3.015625z" fill-rule="nonzero"></path><defs><linearGradient id="p.3" gradientUnits="userSpaceOnUse" gradientTransform="matrix(-7.483322993956059 0.0 0.0 7.483322993956059 0.0 0.0)" spreadMethod="pad" x1="-77.22894419030621" y1="59.51359541485701" x2="-77.22897159156814" y2="66.9969184087629"><stop offset="0.0" stop-color="#fdecdb"></stop><stop offset="1.0" stop-color="#f0a963"></stop></linearGradient></defs><path fill="url(#p.3)" d="m577.92914 459.3596l-16.0 0l0 -14.0l-16.0 28.0l16.0 28.0l0 -14.0l16.0 0z" fill-rule="evenodd"></path><path fill="#000000" fill-opacity="0.0" d="m121.92913 506.39633l688.0 0" fill-rule="evenodd"></path><path stroke="#000000" stroke-width="4.0" stroke-linejoin="round" stroke-linecap="butt" stroke-dasharray="16.0,12.0" d="m121.92913 506.39633l664.0 0" fill-rule="evenodd"></path><path fill="#000000" stroke="#000000" stroke-width="4.0" stroke-linecap="butt" d="m785.92914 513.00323l18.152405 -6.606903l-18.152405 -6.6069336z" fill-rule="evenodd"></path><path fill="#000000" fill-opacity="0.0" d="m121.92913 570.3963l688.0 0" fill-rule="evenodd"></path><path stroke="#000000" stroke-width="4.0" stroke-linejoin="round" stroke-linecap="butt" stroke-dasharray="16.0,12.0" d="m121.92913 570.3963l664.0 0" fill-rule="evenodd"></path><path fill="#000000" stroke="#000000" stroke-width="4.0" stroke-linecap="butt" d="m785.92914 577.00323l18.152405 -6.6069336l-18.152405 -6.6069336z" fill-rule="evenodd"></path><path fill="#000000" fill-opacity="0.0" d="m689.92914 570.3963l216.0 0l0 56.0l-216.0 0z" fill-rule="evenodd"></path><path fill="#000000" d="m742.6098 584.7963l3.640625 0l0 24.6875l10.671875 0l0 3.3125l-14.3125 0l0 -28.0zm20.637512 28.40625q-2.234375 0 -3.6875 -1.59375q-1.4375 -1.609375 -1.4375 -4.09375q0 -3.671875 3.078125 -5.296875q3.09375 -1.625 6.890625 -1.703125q0 -2.5625 -0.765625 -3.5625q-0.75 -1.0 -2.5625 -1.0q-2.3125 0 -4.71875 1.796875l-0.4375 -2.90625q2.515625 -2.046875 5.84375 -2.046875q3.15625 0 4.671875 1.828125q1.53125 1.8125 1.53125 5.859375l0 5.71875q0 2.28125 0.3125 3.21875q0.328125 0.9375 1.40625 0.9375l0.4375 0l-0.4375 2.84375l-0.765625 0q-1.84375 0 -2.71875 -0.671875q-0.875 -0.6875 -1.4375 -2.21875q-0.921875 1.328125 -2.28125 2.109375q-1.359375 0.78125 -2.921875 0.78125zm1.078125 -2.84375q0.96875 0 2.0 -0.734375q1.046875 -0.75 1.765625 -1.953125l0 -4.671875q-3.078125 0.15625 -4.6875 1.1875q-1.59375 1.015625 -1.59375 3.125q0 3.046875 2.515625 3.046875zm18.078735 2.84375q-2.28125 0 -3.375 -1.359375q-1.09375 -1.359375 -1.09375 -3.328125l0 -12.5625l-2.71875 0l0.3125 -2.75l2.40625 0l0 -4.84375l3.46875 -0.359375l0 5.203125l4.25 0l0 2.75l-4.25 0l0 11.15625q0 1.8125 0.65625 2.53125q0.671875 0.71875 2.3125 0.71875l1.234375 0l-0.3125 2.84375l-2.890625 0zm14.404358 0q-2.953125 0 -5.0625 -1.375q-2.09375 -1.390625 -3.15625 -3.75q-1.0625 -2.359375 -1.0625 -5.234375q0 -2.765625 0.984375 -5.0625q0.984375 -2.296875 2.84375 -3.640625q1.859375 -1.34375 4.40625 -1.34375q3.28125 0 5.34375 2.203125q2.0625 2.203125 2.0625 6.078125q0 0.671875 -0.15625 1.875l-11.921875 0q0.125 3.484375 1.734375 5.28125q1.625 1.796875 4.21875 1.796875q1.25 0 2.625 -0.296875q1.375 -0.296875 2.421875 -0.859375l0.3125 3.125q-2.1875 1.203125 -5.59375 1.203125zm2.796875 -12.6875q0 -2.0 -0.984375 -3.25q-0.96875 -1.265625 -2.8125 -1.265625q-1.796875 0 -2.984375 1.125q-1.171875 1.109375 -1.578125 3.390625l8.359375 0zm14.997498 -7.71875q3.046875 0 4.656189 2.390625q1.625 2.375 1.625 6.40625l0 11.203125l-3.468689 0l0 -10.765625q0 -3.109375 -0.90625 -4.609375q-0.90625 -1.5 -2.703125 -1.5q-1.3125 0 -2.4375 0.734375q-1.125 0.734375 -1.875 2.0625l0 14.078125l-3.484375 0l0 -19.59375l2.953125 0l0.25 2.4375q0.84375 -1.328125 2.25 -2.078125q1.421875 -0.765625 3.140625 -0.765625zm18.164307 20.40625q-4.484375 0 -6.8125 -2.8125q-2.3125 -2.828125 -2.3125 -7.28125q0 -4.59375 2.3125 -7.453125q2.328125 -2.859375 6.890625 -2.859375q2.4375 0 4.359375 1.0l-0.5625 3.078125q-1.796875 -0.953125 -3.75 -0.953125q-2.6875 0 -4.1875 1.859375q-1.5 1.859375 -1.5 5.171875q0 3.328125 1.53125 5.25q1.546875 1.90625 4.265625 1.90625q2.09375 0 3.6875 -0.953125l0.484375 3.125q-0.796875 0.390625 -2.0 0.65625q-1.203125 0.265625 -2.40625 0.265625zm12.634338 -1.28125l-7.15625 -18.71875l3.71875 0l5.25 14.59375l4.796875 -14.59375l3.71875 0l-10.515625 29.28125l-3.71875 0l3.90625 -10.5625z" fill-rule="nonzero"></path><path fill="#000000" fill-opacity="0.0" d="m329.92914 322.39633l224.0 0l0 32.0l-224.0 0z" fill-rule="evenodd"></path><path fill="#000000" d="m388.39005 328.9363l2.078125 0l0 11.5625l3.53125 -5.328125l2.5 0l-3.890625 5.421875l3.953125 6.34375l-2.515625 0l-3.578125 -6.0l0 6.0l-2.078125 0l0 -18.0zm14.781982 18.234375q-1.78125 0 -3.046875 -0.828125q-1.25 -0.828125 -1.890625 -2.234375q-0.640625 -1.421875 -0.640625 -3.140625q0 -1.65625 0.59375 -3.03125q0.59375 -1.390625 1.703125 -2.1875q1.125 -0.8125 2.65625 -0.8125q1.96875 0 3.203125 1.328125q1.234375 1.3125 1.234375 3.640625q0 0.40625 -0.09375 1.125l-7.15625 0q0.078125 2.09375 1.046875 3.171875q0.96875 1.078125 2.53125 1.078125q0.75 0 1.578125 -0.171875q0.828125 -0.1875 1.453125 -0.53125l0.1875 1.875q-1.328125 0.71875 -3.359375 0.71875zm1.671875 -7.609375q0 -1.1875 -0.59375 -1.9375q-0.578125 -0.765625 -1.6875 -0.765625q-1.078125 0 -1.78125 0.671875q-0.703125 0.671875 -0.953125 2.03125l5.015625 0zm4.0203247 -4.390625l1.703125 0l0.265625 1.96875q0.78125 -1.140625 1.484375 -1.671875q0.71875 -0.53125 1.515625 -0.53125q0.296875 0 0.546875 0.078125l-0.21875 2.375q-0.3125 -0.078125 -0.71875 -0.078125q-0.796875 0 -1.5 0.40625q-0.6875 0.390625 -1.0 0.921875l0 8.296875l-2.078125 0l0 -11.765625zm12.064362 -0.234375q1.828125 0 2.796875 1.4375q0.96875 1.421875 0.96875 3.84375l0 6.71875l-2.078125 0l0 -6.453125q0 -1.875 -0.546875 -2.765625q-0.546875 -0.90625 -1.625 -0.90625q-0.78125 0 -1.453125 0.453125q-0.671875 0.4375 -1.140625 1.21875l0 8.453125l-2.078125 0l0 -11.765625l1.765625 0l0.15625 1.46875q0.5 -0.796875 1.34375 -1.25q0.859375 -0.453125 1.890625 -0.453125zm11.067352 12.234375q-1.78125 0 -3.046875 -0.828125q-1.25 -0.828125 -1.890625 -2.234375q-0.640625 -1.421875 -0.640625 -3.140625q0 -1.65625 0.59375 -3.03125q0.59375 -1.390625 1.703125 -2.1875q1.125 -0.8125 2.65625 -0.8125q1.96875 0 3.203125 1.328125q1.234375 1.3125 1.234375 3.640625q0 0.40625 -0.09375 1.125l-7.15625 0q0.078125 2.09375 1.046875 3.171875q0.96875 1.078125 2.53125 1.078125q0.75 0 1.578125 -0.171875q0.828125 -0.1875 1.453125 -0.53125l0.1875 1.875q-1.328125 0.71875 -3.359375 0.71875zm1.671875 -7.609375q0 -1.1875 -0.59375 -1.9375q-0.578125 -0.765625 -1.6875 -0.765625q-1.078125 0 -1.78125 0.671875q-0.703125 0.671875 -0.953125 2.03125l5.015625 0zm6.5984497 7.609375q-1.34375 0 -2.0 -0.8125q-0.640625 -0.8125 -0.640625 -2.015625l0 -15.40625l2.09375 0l0 14.15625q0 1.0625 0.109375 1.5625q0.109375 0.484375 0.421875 0.65625q0.3125 0.15625 1.0 0.15625l-0.25 1.703125l-0.734375 0zm10.549866 0q-2.078125 0 -3.578125 -0.953125l0.265625 -2.109375q1.53125 1.203125 3.15625 1.203125q0.875 0 1.359375 -0.359375q0.5 -0.375 0.5 -1.0625q0 -0.53125 -0.234375 -0.859375q-0.234375 -0.34375 -0.765625 -0.65625q-0.515625 -0.3125 -1.625 -0.8125q-1.296875 -0.59375 -1.90625 -1.359375q-0.59375 -0.78125 -0.59375 -2.0q0 -1.4375 1.0 -2.34375q1.015625 -0.921875 2.734375 -0.921875q1.71875 0 3.015625 0.765625l-0.265625 1.953125q-0.640625 -0.4375 -1.21875 -0.640625q-0.578125 -0.203125 -1.375 -0.203125q-0.828125 0 -1.3125 0.359375q-0.484375 0.359375 -0.484375 1.0q0 0.65625 0.421875 1.0q0.421875 0.328125 1.640625 0.875q1.703125 0.765625 2.390625 1.546875q0.703125 0.78125 0.703125 2.0625q0 1.65625 -1.03125 2.59375q-1.03125 0.921875 -2.796875 0.921875zm10.718079 -12.234375q1.421875 0 2.484375 0.8125q1.078125 0.796875 1.640625 2.1875q0.5625 1.390625 0.5625 3.125q0 2.6875 -1.234375 4.40625q-1.21875 1.703125 -3.453125 1.703125q-0.90625 0 -1.6875 -0.3125q-0.78125 -0.328125 -1.328125 -0.953125l0 6.84375l-2.09375 0l0 -17.578125l1.609375 0l0.1875 1.421875q1.28125 -1.65625 3.3125 -1.65625zm-0.375 10.390625q1.359375 0 2.140625 -1.125q0.78125 -1.125 0.78125 -3.140625q0 -2.0 -0.78125 -3.125q-0.78125 -1.125 -2.140625 -1.125q-0.71875 0 -1.390625 0.484375q-0.671875 0.46875 -1.09375 1.4375q-0.421875 0.953125 -0.421875 2.328125q0 1.40625 0.421875 2.375q0.421875 0.953125 1.078125 1.421875q0.65625 0.46875 1.40625 0.46875zm9.226471 1.84375q-1.34375 0 -2.203125 -0.953125q-0.859375 -0.96875 -0.859375 -2.453125q0 -2.203125 1.84375 -3.171875q1.84375 -0.96875 4.125 -1.03125q0 -1.53125 -0.453125 -2.125q-0.453125 -0.609375 -1.53125 -0.609375q-1.390625 0 -2.828125 1.078125l-0.265625 -1.75q1.5 -1.21875 3.5 -1.21875q1.890625 0 2.796875 1.09375q0.921875 1.09375 0.921875 3.515625l0 3.4375q0 1.359375 0.1875 1.921875q0.203125 0.5625 0.84375 0.5625l0.265625 0l-0.265625 1.703125l-0.453125 0q-1.109375 0 -1.640625 -0.40625q-0.515625 -0.40625 -0.859375 -1.3125q-0.546875 0.78125 -1.375 1.25q-0.8125 0.46875 -1.75 0.46875zm0.65625 -1.703125q0.578125 0 1.203125 -0.4375q0.625 -0.453125 1.046875 -1.171875l0 -2.796875q-1.84375 0.09375 -2.8125 0.703125q-0.953125 0.609375 -0.953125 1.890625q0 1.8125 1.515625 1.8125zm12.165985 1.703125q-2.6875 0 -4.078125 -1.6875q-1.390625 -1.6875 -1.390625 -4.359375q0 -2.75 1.390625 -4.46875q1.390625 -1.71875 4.125 -1.71875q1.46875 0 2.625 0.59375l-0.34375 1.859375q-1.078125 -0.578125 -2.25 -0.578125q-1.609375 0 -2.515625 1.125q-0.890625 1.109375 -0.890625 3.09375q0 2.0 0.921875 3.15625q0.921875 1.140625 2.546875 1.140625q1.25 0 2.21875 -0.578125l0.28125 1.875q-0.484375 0.234375 -1.203125 0.390625q-0.71875 0.15625 -1.4375 0.15625zm9.411835 0q-1.78125 0 -3.046875 -0.828125q-1.25 -0.828125 -1.890625 -2.234375q-0.640625 -1.421875 -0.640625 -3.140625q0 -1.65625 0.59375 -3.03125q0.59375 -1.390625 1.703125 -2.1875q1.125 -0.8125 2.65625 -0.8125q1.96875 0 3.203125 1.328125q1.234375 1.3125 1.234375 3.640625q0 0.40625 -0.09375 1.125l-7.15625 0q0.078125 2.09375 1.046875 3.171875q0.96875 1.078125 2.53125 1.078125q0.75 0 1.578125 -0.171875q0.828125 -0.1875 1.453125 -0.53125l0.1875 1.875q-1.328125 0.71875 -3.359375 0.71875zm1.671875 -7.609375q0 -1.1875 -0.59375 -1.9375q-0.578125 -0.765625 -1.6875 -0.765625q-1.078125 0 -1.78125 0.671875q-0.703125 0.671875 -0.953125 2.03125l5.015625 0z" fill-rule="nonzero"></path><path fill="#000000" fill-opacity="0.0" d="m329.92914 578.3963l224.0 0l0 32.0l-224.0 0z" fill-rule="evenodd"></path><path fill="#000000" d="m405.2909 591.1707l0 11.765625l-1.78125 0l-0.140625 -1.4375q-0.46875 0.796875 -1.296875 1.234375q-0.8125 0.4375 -1.796875 0.4375q-1.84375 0 -2.75 -1.234375q-0.890625 -1.234375 -0.890625 -3.53125l0 -7.234375l2.078125 0l0 6.96875q0 1.578125 0.46875 2.359375q0.46875 0.78125 1.578125 0.78125q0.765625 0 1.390625 -0.421875q0.625 -0.4375 1.0625 -1.203125l0 -8.484375l2.078125 0zm6.0093384 12.0q-2.078125 0 -3.578125 -0.953125l0.265625 -2.109375q1.53125 1.203125 3.15625 1.203125q0.875 0 1.359375 -0.359375q0.5 -0.375 0.5 -1.0625q0 -0.53125 -0.234375 -0.859375q-0.234375 -0.34375 -0.765625 -0.65625q-0.515625 -0.3125 -1.625 -0.8125q-1.296875 -0.59375 -1.90625 -1.359375q-0.59375 -0.78125 -0.59375 -2.0q0 -1.4375 1.0 -2.34375q1.015625 -0.921875 2.734375 -0.921875q1.71875 0 3.015625 0.765625l-0.265625 1.953125q-0.640625 -0.4375 -1.21875 -0.640625q-0.578125 -0.203125 -1.375 -0.203125q-0.828125 0 -1.3125 0.359375q-0.484375 0.359375 -0.484375 1.0q0 0.65625 0.421875 1.0q0.421875 0.328125 1.640625 0.875q1.703125 0.765625 2.390625 1.546875q0.703125 0.78125 0.703125 2.0625q0 1.65625 -1.03125 2.59375q-1.03125 0.921875 -2.796875 0.921875zm10.483734 0q-1.78125 0 -3.046875 -0.828125q-1.25 -0.828125 -1.890625 -2.234375q-0.640625 -1.421875 -0.640625 -3.140625q0 -1.65625 0.59375 -3.03125q0.59375 -1.390625 1.703125 -2.1875q1.125 -0.8125 2.65625 -0.8125q1.96875 0 3.203125 1.328125q1.234375 1.3125 1.234375 3.640625q0 0.40625 -0.09375 1.125l-7.15625 0q0.078125 2.09375 1.046875 3.171875q0.96875 1.078125 2.53125 1.078125q0.75 0 1.578125 -0.171875q0.828125 -0.1875 1.453125 -0.53125l0.1875 1.875q-1.328125 0.71875 -3.359375 0.71875zm1.671875 -7.609375q0 -1.1875 -0.59375 -1.9375q-0.578125 -0.765625 -1.6875 -0.765625q-1.078125 0 -1.78125 0.671875q-0.703125 0.671875 -0.953125 2.03125l5.015625 0zm4.0203247 -4.390625l1.703125 0l0.265625 1.96875q0.78125 -1.140625 1.484375 -1.671875q0.71875 -0.53125 1.515625 -0.53125q0.296875 0 0.546875 0.078125l-0.21875 2.375q-0.3125 -0.078125 -0.71875 -0.078125q-0.796875 0 -1.5 0.40625q-0.6875 0.390625 -1.0 0.921875l0 8.296875l-2.078125 0l0 -11.765625zm14.735992 12.0q-2.078125 0 -3.578125 -0.953125l0.265625 -2.109375q1.53125 1.203125 3.15625 1.203125q0.875 0 1.359375 -0.359375q0.5 -0.375 0.5 -1.0625q0 -0.53125 -0.234375 -0.859375q-0.234375 -0.34375 -0.765625 -0.65625q-0.515625 -0.3125 -1.625 -0.8125q-1.296875 -0.59375 -1.90625 -1.359375q-0.59375 -0.78125 -0.59375 -2.0q0 -1.4375 1.0 -2.34375q1.015625 -0.921875 2.734375 -0.921875q1.71875 0 3.015625 0.765625l-0.265625 1.953125q-0.640625 -0.4375 -1.21875 -0.640625q-0.578125 -0.203125 -1.375 -0.203125q-0.828125 0 -1.3125 0.359375q-0.484375 0.359375 -0.484375 1.0q0 0.65625 0.421875 1.0q0.421875 0.328125 1.640625 0.875q1.703125 0.765625 2.390625 1.546875q0.703125 0.78125 0.703125 2.0625q0 1.65625 -1.03125 2.59375q-1.03125 0.921875 -2.796875 0.921875zm10.718079 -12.234375q1.421875 0 2.484375 0.8125q1.078125 0.796875 1.640625 2.1875q0.5625 1.390625 0.5625 3.125q0 2.6875 -1.234375 4.40625q-1.21875 1.703125 -3.453125 1.703125q-0.90625 0 -1.6875 -0.3125q-0.78125 -0.328125 -1.328125 -0.953125l0 6.84375l-2.09375 0l0 -17.578125l1.609375 0l0.1875 1.421875q1.28125 -1.65625 3.3125 -1.65625zm-0.375 10.390625q1.359375 0 2.140625 -1.125q0.78125 -1.125 0.78125 -3.140625q0 -2.0 -0.78125 -3.125q-0.78125 -1.125 -2.140625 -1.125q-0.71875 0 -1.390625 0.484375q-0.671875 0.46875 -1.09375 1.4375q-0.421875 0.953125 -0.421875 2.328125q0 1.40625 0.421875 2.375q0.421875 0.953125 1.078125 1.421875q0.65625 0.46875 1.40625 0.46875zm9.226471 1.84375q-1.34375 0 -2.203125 -0.953125q-0.859375 -0.96875 -0.859375 -2.453125q0 -2.203125 1.84375 -3.171875q1.84375 -0.96875 4.125 -1.03125q0 -1.53125 -0.453125 -2.125q-0.453125 -0.609375 -1.53125 -0.609375q-1.390625 0 -2.828125 1.078125l-0.265625 -1.75q1.5 -1.21875 3.5 -1.21875q1.890625 0 2.796875 1.09375q0.921875 1.09375 0.921875 3.515625l0 3.4375q0 1.359375 0.1875 1.921875q0.203125 0.5625 0.84375 0.5625l0.265625 0l-0.265625 1.703125l-0.453125 0q-1.109375 0 -1.640625 -0.40625q-0.515625 -0.40625 -0.859375 -1.3125q-0.546875 0.78125 -1.375 1.25q-0.8125 0.46875 -1.75 0.46875zm0.65625 -1.703125q0.578125 0 1.203125 -0.4375q0.625 -0.453125 1.046875 -1.171875l0 -2.796875q-1.84375 0.09375 -2.8125 0.703125q-0.953125 0.609375 -0.953125 1.890625q0 1.8125 1.515625 1.8125zm12.165985 1.703125q-2.6875 0 -4.078125 -1.6875q-1.390625 -1.6875 -1.390625 -4.359375q0 -2.75 1.390625 -4.46875q1.390625 -1.71875 4.125 -1.71875q1.46875 0 2.625 0.59375l-0.34375 1.859375q-1.078125 -0.578125 -2.25 -0.578125q-1.609375 0 -2.515625 1.125q-0.890625 1.109375 -0.890625 3.09375q0 2.0 0.921875 3.15625q0.921875 1.140625 2.546875 1.140625q1.25 0 2.21875 -0.578125l0.28125 1.875q-0.484375 0.234375 -1.203125 0.390625q-0.71875 0.15625 -1.4375 0.15625zm9.411835 0q-1.78125 0 -3.046875 -0.828125q-1.25 -0.828125 -1.890625 -2.234375q-0.640625 -1.421875 -0.640625 -3.140625q0 -1.65625 0.59375 -3.03125q0.59375 -1.390625 1.703125 -2.1875q1.125 -0.8125 2.65625 -0.8125q1.96875 0 3.203125 1.328125q1.234375 1.3125 1.234375 3.640625q0 0.40625 -0.09375 1.125l-7.15625 0q0.078125 2.09375 1.046875 3.171875q0.96875 1.078125 2.53125 1.078125q0.75 0 1.578125 -0.171875q0.828125 -0.1875 1.453125 -0.53125l0.1875 1.875q-1.328125 0.71875 -3.359375 0.71875zm1.671875 -7.609375q0 -1.1875 -0.59375 -1.9375q-0.578125 -0.765625 -1.6875 -0.765625q-1.078125 0 -1.78125 0.671875q-0.703125 0.671875 -0.953125 2.03125l5.015625 0z" fill-rule="nonzero"></path><path fill="#000000" fill-opacity="0.0" d="m512.1575 450.6276l0 0c0 -8.181519 6.6324463 -14.813934 14.813965 -14.813934l59.253967 0l0 0c3.928955 0 7.6968994 1.56073 10.475037 4.3388977c2.7781982 2.7781372 4.338928 6.5461426 4.338928 10.475037l0 104.9548c0 8.181519 -6.6324463 14.813904 -14.813965 14.813904l-59.253967 0c-8.181519 0 -14.813965 -6.6323853 -14.813965 -14.813904z" fill-rule="evenodd"></path><path stroke="#ff0000" stroke-width="4.0" stroke-linejoin="round" stroke-linecap="butt" d="m512.1575 450.6276l0 0c0 -8.181519 6.6324463 -14.813934 14.813965 -14.813934l59.253967 0l0 0c3.928955 0 7.6968994 1.56073 10.475037 4.3388977c2.7781982 2.7781372 4.338928 6.5461426 4.338928 10.475037l0 104.9548c0 8.181519 -6.6324463 14.813904 -14.813965 14.813904l-59.253967 0c-8.181519 0 -14.813965 -6.6323853 -14.813965 -14.813904z" fill-rule="evenodd"></path><path fill="#000000" fill-opacity="0.0" d="m417.92914 402.39633l224.0 0l0 32.0l-224.0 0z" fill-rule="evenodd"></path><path fill="#000000" d="m489.05664 414.9363q1.421875 0 2.453125 0.84375q1.046875 0.84375 1.59375 2.25q0.5625 1.390625 0.5625 3.03125q0 1.703125 -0.578125 3.109375q-0.578125 1.390625 -1.625 2.203125q-1.03125 0.796875 -2.40625 0.796875q-0.953125 0 -1.78125 -0.359375q-0.828125 -0.359375 -1.390625 -1.03125l-0.09375 1.15625l-1.890625 0l0 -18.0l2.078125 0l0 7.375q1.25 -1.375 3.078125 -1.375zm-0.359375 10.390625q1.265625 0 2.046875 -1.234375q0.78125 -1.234375 0.78125 -3.03125q0 -1.859375 -0.765625 -3.046875q-0.765625 -1.203125 -2.0625 -1.203125q-1.296875 0 -2.109375 1.09375q-0.796875 1.09375 -0.796875 3.15625q0 2.125 0.796875 3.203125q0.8125 1.0625 2.109375 1.0625zm11.495483 1.84375q-1.578125 0 -2.734375 -0.796875q-1.15625 -0.8125 -1.765625 -2.203125q-0.609375 -1.390625 -0.609375 -3.109375q0 -1.734375 0.609375 -3.125q0.609375 -1.390625 1.765625 -2.1875q1.15625 -0.8125 2.734375 -0.8125q1.5625 0 2.703125 0.8125q1.15625 0.796875 1.75 2.1875q0.609375 1.390625 0.609375 3.125q0 1.71875 -0.609375 3.109375q-0.59375 1.390625 -1.75 2.203125q-1.140625 0.796875 -2.703125 0.796875zm0 -1.84375q1.390625 0 2.15625 -1.125q0.765625 -1.125 0.765625 -3.140625q0 -2.015625 -0.765625 -3.125q-0.765625 -1.125 -2.15625 -1.125q-1.4375 0 -2.203125 1.125q-0.765625 1.109375 -0.765625 3.125q0 2.03125 0.765625 3.15625q0.765625 1.109375 2.203125 1.109375zm10.374847 1.84375q-1.375 0 -2.03125 -0.8125q-0.65625 -0.8125 -0.65625 -1.984375l0 -7.546875l-1.640625 0l0.1875 -1.65625l1.453125 0l0 -2.890625l2.078125 -0.21875l0 3.109375l2.5468445 0l0 1.65625l-2.5468445 0l0 6.703125q0 1.078125 0.390625 1.515625q0.40625 0.421875 1.390625 0.421875l0.7343445 0l-0.1875 1.703125l-1.7187195 0zm7.151947 0q-1.375 0 -2.03125 -0.8125q-0.65625 -0.8125 -0.65625 -1.984375l0 -7.546875l-1.640625 0l0.1875 -1.65625l1.453125 0l0 -2.890625l2.078125 -0.21875l0 3.109375l2.546875 0l0 1.65625l-2.546875 0l0 6.703125q0 1.078125 0.390625 1.515625q0.40625 0.421875 1.390625 0.421875l0.734375 0l-0.1875 1.703125l-1.71875 0zm6.3707275 0q-1.34375 0 -2.0 -0.8125q-0.640625 -0.8125 -0.640625 -2.015625l0 -15.40625l2.09375 0l0 14.15625q0 1.0625 0.109375 1.5625q0.109375 0.484375 0.421875 0.65625q0.3125 0.15625 1.0 0.15625l-0.25 1.703125l-0.734375 0zm7.73761 0q-1.78125 0 -3.046875 -0.828125q-1.25 -0.828125 -1.890625 -2.234375q-0.640625 -1.421875 -0.640625 -3.140625q0 -1.65625 0.59375 -3.03125q0.59375 -1.390625 1.703125 -2.1875q1.125 -0.8125 2.65625 -0.8125q1.96875 0 3.203125 1.328125q1.234375 1.3125 1.234375 3.640625q0 0.40625 -0.09375 1.125l-7.15625 0q0.078125 2.09375 1.046875 3.171875q0.96875 1.078125 2.53125 1.078125q0.75 0 1.578125 -0.171875q0.828125 -0.1875 1.453125 -0.53125l0.1875 1.875q-1.328125 0.71875 -3.359375 0.71875zm1.671875 -7.609375q0 -1.1875 -0.59375 -1.9375q-0.578125 -0.765625 -1.6875 -0.765625q-1.078125 0 -1.78125 0.671875q-0.703125 0.671875 -0.953125 2.03125l5.015625 0zm9.004761 -4.625q1.828125 0 2.796875 1.4375q0.96875 1.421875 0.96875 3.84375l0 6.71875l-2.078125 0l0 -6.453125q0 -1.875 -0.546875 -2.765625q-0.546875 -0.90625 -1.625 -0.90625q-0.78125 0 -1.453125 0.453125q-0.671875 0.4375 -1.140625 1.21875l0 8.453125l-2.078125 0l0 -11.765625l1.765625 0l0.15625 1.46875q0.5 -0.796875 1.34375 -1.25q0.859375 -0.453125 1.890625 -0.453125zm11.067322 12.234375q-1.78125 0 -3.046875 -0.828125q-1.25 -0.828125 -1.890625 -2.234375q-0.640625 -1.421875 -0.640625 -3.140625q0 -1.65625 0.59375 -3.03125q0.59375 -1.390625 1.703125 -2.1875q1.125 -0.8125 2.65625 -0.8125q1.96875 0 3.203125 1.328125q1.234375 1.3125 1.234375 3.640625q0 0.40625 -0.09375 1.125l-7.15625 0q0.078125 2.09375 1.046875 3.171875q0.96875 1.078125 2.53125 1.078125q0.75 0 1.578125 -0.171875q0.828125 -0.1875 1.453125 -0.53125l0.1875 1.875q-1.328125 0.71875 -3.359375 0.71875zm1.671875 -7.609375q0 -1.1875 -0.59375 -1.9375q-0.578125 -0.765625 -1.6875 -0.765625q-1.078125 0 -1.78125 0.671875q-0.703125 0.671875 -0.953125 2.03125l5.015625 0zm8.6922 7.609375q-2.6875 0 -4.078125 -1.6875q-1.390625 -1.6875 -1.390625 -4.359375q0 -2.75 1.390625 -4.46875q1.390625 -1.71875 4.125 -1.71875q1.46875 0 2.625 0.59375l-0.34375 1.859375q-1.078125 -0.578125 -2.25 -0.578125q-1.609375 0 -2.515625 1.125q-0.890625 1.109375 -0.890625 3.09375q0 2.0 0.921875 3.15625q0.921875 1.140625 2.546875 1.140625q1.25 0 2.21875 -0.578125l0.28125 1.875q-0.484375 0.234375 -1.203125 0.390625q-0.71875 0.15625 -1.4375 0.15625zm4.661865 -18.234375l2.078125 0l0 11.5625l3.53125 -5.328125l2.5 0l-3.890625 5.421875l3.953125 6.34375l-2.515625 0l-3.578125 -6.0l0 6.0l-2.078125 0l0 -18.0z" fill-rule="nonzero"></path></g></svg>

