<?xml version="1.0" standalone="yes"?>

<svg version="1.1" viewBox="0.0 0.0 963.8976377952756 496.745406824147" fill="none" stroke="none" stroke-linecap="square" stroke-miterlimit="10" xmlns="http://www.w3.org/2000/svg" xmlns:xlink="http://www.w3.org/1999/xlink"><clipPath id="p.0"><path d="m0 0l963.89764 0l0 496.7454l-963.89764 0l0 -496.7454z" clip-rule="nonzero"></path></clipPath><g clip-path="url(#p.0)"><path fill="#000000" fill-opacity="0.0" d="m0 0l963.89764 0l0 496.7454l-963.89764 0z" fill-rule="evenodd"></path><path fill="#000000" fill-opacity="0.0" d="m11.692913 151.92914l945.5118 0" fill-rule="evenodd"></path><path stroke="#000000" stroke-width="2.0" stroke-linejoin="round" stroke-linecap="butt" stroke-dasharray="8.0,6.0" d="m11.692913 151.92914l938.65765 0" fill-rule="evenodd"></path><path fill="#000000" stroke="#000000" stroke-width="2.0" stroke-linecap="butt" d="m950.3505 151.92914l-2.2491455 2.2491608l6.1795654 -2.2491608l-6.1795654 -2.249176z" fill-rule="evenodd"></path><path fill="#000000" fill-opacity="0.0" d="m64.0 216.3727l223.3071 0" fill-rule="evenodd"></path><path stroke="#ff0000" stroke-width="4.0" stroke-linejoin="round" stroke-linecap="butt" d="m86.5131 216.3727l178.28088 0" fill-rule="evenodd"></path><path fill="#ff0000" stroke="#ff0000" stroke-width="4.0" stroke-linecap="butt" d="m86.51311 216.3727l-9.513107 -6.661148l-9.513107 6.661148l9.513107 6.661148z" fill-rule="evenodd"></path><path fill="#ff0000" stroke="#ff0000" stroke-width="4.0" stroke-linecap="butt" d="m264.79398 216.3727l9.513123 6.661148l9.513092 -6.661148l-9.513092 -6.661148z" fill-rule="evenodd"></path><path fill="#000000" fill-opacity="0.0" d="m64.0 280.3727l384.0 0" fill-rule="evenodd"></path><path stroke="#ff0000" stroke-width="4.0" stroke-linejoin="round" stroke-linecap="butt" d="m86.5131 280.3727l338.9738 0" fill-rule="evenodd"></path><path fill="#ff0000" stroke="#ff0000" stroke-width="4.0" stroke-linecap="butt" d="m86.51311 280.3727l-9.513107 -6.6611633l-9.513107 6.6611633l9.513107 6.661133z" fill-rule="evenodd"></path><path fill="#ff0000" stroke="#ff0000" stroke-width="4.0" stroke-linecap="butt" d="m425.4869 280.3727l9.513092 6.661133l9.513092 -6.661133l-9.513092 -6.6611633z" fill-rule="evenodd"></path><path fill="#000000" fill-opacity="0.0" d="m336.0 344.3727l304.0 0" fill-rule="evenodd"></path><path stroke="#ff0000" stroke-width="4.0" stroke-linejoin="round" stroke-linecap="butt" d="m358.51312 344.3727l258.97375 0" fill-rule="evenodd"></path><path fill="#ff0000" stroke="#ff0000" stroke-width="4.0" stroke-linecap="butt" d="m358.5131 344.3727l-9.513092 -6.6611633l-9.513092 6.6611633l9.513092 6.661133z" fill-rule="evenodd"></path><path fill="#ff0000" stroke="#ff0000" stroke-width="4.0" stroke-linecap="butt" d="m617.4869 344.3727l9.513123 6.661133l9.513123 -6.661133l-9.513123 -6.6611633z" fill-rule="evenodd"></path><path fill="#000000" fill-opacity="0.0" d="m392.0 408.3727l440.0 0" fill-rule="evenodd"></path><path stroke="#ff0000" stroke-width="4.0" stroke-linejoin="round" stroke-linecap="butt" d="m414.51312 408.3727l394.97375 0" fill-rule="evenodd"></path><path fill="#ff0000" stroke="#ff0000" stroke-width="4.0" stroke-linecap="butt" d="m414.5131 408.3727l-9.513092 -6.6611633l-9.513092 6.6611633l9.513092 6.661133z" fill-rule="evenodd"></path><path fill="#ff0000" stroke="#ff0000" stroke-width="4.0" stroke-linecap="butt" d="m809.4869 408.3727l9.513123 6.661133l9.513123 -6.661133l-9.513123 -6.6611633z" fill-rule="evenodd"></path><path fill="#000000" fill-opacity="0.0" d="m0 152.3727l218.83464 0" fill-rule="evenodd"></path><path stroke="#ff0000" stroke-width="4.0" stroke-linejoin="round" stroke-linecap="butt" d="m22.513105 152.3727l173.80844 0" fill-rule="evenodd"></path><path fill="#ff0000" stroke="#ff0000" stroke-width="4.0" stroke-linecap="butt" d="m22.513105 152.3727l-9.513106 -6.661148l-9.513105 6.661148l9.513105 6.661148z" fill-rule="evenodd"></path><path fill="#ff0000" stroke="#ff0000" stroke-width="4.0" stroke-linecap="butt" d="m196.32153 152.3727l9.513107 6.661148l9.513107 -6.661148l-9.513107 -6.661148z" fill-rule="evenodd"></path><path fill="#000000" fill-opacity="0.0" d="m56.0 88.3727l200.0 0l0 47.999992l-200.0 0z" fill-rule="evenodd"></path><path fill="#000000" d="m66.828125 112.405205l2.265625 0l0.359375 2.625q1.046875 -1.53125 1.984375 -2.234375q0.953125 -0.703125 2.015625 -0.703125q0.40625 0 0.734375 0.09375l-0.296875 3.171875q-0.40625 -0.09375 -0.953125 -0.09375q-1.0625 0 -1.984375 0.53125q-0.921875 0.515625 -1.34375 1.21875l0 11.078117l-2.78125 0l0 -15.687492zm15.893143 15.999992q-2.359375 0 -4.046875 -1.0937424q-1.671875 -1.109375 -2.53125 -2.984375q-0.84375 -1.890625 -0.84375 -4.203125q0 -2.203125 0.78125 -4.046875q0.796875 -1.84375 2.28125 -2.90625q1.484375 -1.078125 3.53125 -1.078125q2.625 0 4.265625 1.765625q1.65625 1.75 1.65625 4.859375q0 0.546875 -0.125 1.5l-9.53125 0q0.09375 2.78125 1.390625 4.234375q1.296875 1.4375 3.375 1.4375q0.984375 0 2.09375 -0.234375q1.109375 -0.25 1.9375 -0.703125l0.25 2.5q-1.75 0.9531174 -4.484375 0.9531174zm2.25 -10.140617q0 -1.59375 -0.796875 -2.59375q-0.78125 -1.015625 -2.25 -1.015625q-1.4375 0 -2.390625 0.90625q-0.9375 0.890625 -1.25 2.703125l6.6875 0zm18.360535 -5.859375l0 23.437492l-2.78125 0l0 -8.843742q-1.46875 1.4062424 -3.703125 1.4062424q-3.140625 0 -4.859375 -2.2812424q-1.703125 -2.28125 -1.703125 -5.875q0 -2.171875 0.78125 -4.046875q0.78125 -1.875 2.265625 -2.984375q1.5 -1.125 3.4375 -1.125q1.421875 0 2.421875 0.4375q1.015625 0.421875 1.78125 1.328125l0.1875 -1.453125l2.171875 0zm-6.265625 13.546875q1.6875 0 2.78125 -1.421875q1.09375 -1.421875 1.09375 -4.28125q0 -2.75 -1.09375 -4.203125q-1.09375 -1.453125 -2.78125 -1.453125q-1.828125 0 -2.890625 1.5q-1.046875 1.5 -1.046875 4.15625q0 2.6875 1.046875 4.203125q1.0625 1.5 2.890625 1.5zm20.229156 -13.546875l0 15.687492l-2.375 0l-0.1875 -1.9218674q-0.640625 1.0625 -1.734375 1.65625q-1.09375 0.5781174 -2.390625 0.5781174q-2.46875 0 -3.671875 -1.6406174q-1.203125 -1.640625 -1.203125 -4.71875l0 -9.640625l2.78125 0l0 9.28125q0 2.125 0.625 3.171875q0.625 1.03125 2.09375 1.03125q1.03125 0 1.859375 -0.578125q0.828125 -0.578125 1.40625 -1.609375l0 -11.296875l2.796875 0zm10.450027 15.999992q-2.359375 0 -4.046875 -1.0937424q-1.671875 -1.109375 -2.53125 -2.984375q-0.84375 -1.890625 -0.84375 -4.203125q0 -2.203125 0.78125 -4.046875q0.796875 -1.84375 2.28125 -2.90625q1.484375 -1.078125 3.53125 -1.078125q2.625 0 4.265625 1.765625q1.65625 1.75 1.65625 4.859375q0 0.546875 -0.125 1.5l-9.53125 0q0.09375 2.78125 1.390625 4.234375q1.296875 1.4375 3.375 1.4375q0.984375 0 2.09375 -0.234375q1.109375 -0.25 1.9375 -0.703125l0.25 2.5q-1.75 0.9531174 -4.484375 0.9531174zm2.25 -10.140617q0 -1.59375 -0.796875 -2.59375q-0.78125 -1.015625 -2.25 -1.015625q-1.4375 0 -2.390625 0.90625q-0.9375 0.890625 -1.25 2.703125l6.6875 0zm9.34491 10.140617q-2.75 0 -4.765625 -1.2656174l0.34375 -2.828125q2.046875 1.609375 4.21875 1.609375q1.15625 0 1.8125 -0.484375q0.65625 -0.484375 0.65625 -1.40625q0 -0.703125 -0.3125 -1.140625q-0.296875 -0.453125 -1.0 -0.875q-0.703125 -0.421875 -2.171875 -1.09375q-1.734375 -0.796875 -2.53125 -1.8125q-0.796875 -1.03125 -0.796875 -2.65625q0 -1.921875 1.34375 -3.140625q1.34375 -1.21875 3.609375 -1.21875q2.3125 0 4.03125 1.03125l-0.34375 2.578125q-0.859375 -0.5625 -1.640625 -0.828125q-0.765625 -0.28125 -1.8125 -0.28125q-1.125 0 -1.765625 0.484375q-0.640625 0.46875 -0.640625 1.328125q0 0.875 0.5625 1.328125q0.5625 0.4375 2.1875 1.171875q2.28125 1.03125 3.203125 2.078125q0.921875 1.03125 0.921875 2.71875q0 2.21875 -1.375 3.46875q-1.375 1.2343674 -3.734375 1.2343674zm11.98877 0q-1.8125 0 -2.703125 -1.0781174q-0.875 -1.09375 -0.875 -2.65625l0 -10.046875l-2.171875 0l0.25 -2.21875l1.921875 0l0 -3.859375l2.78125 -0.296875l0 4.15625l3.390625 0l0 2.21875l-3.390625 0l0 8.921875q0 1.4375 0.53125 2.015625q0.53125 0.578125 1.84375 0.578125l0.984375 0l-0.25 2.2656174l-2.3125 0z" fill-rule="nonzero"></path></g></svg>

