<?xml version="1.0" standalone="yes"?>

<svg version="1.1" viewBox="0.0 0.0 958.8871391076116 389.8293963254593" fill="none" stroke="none" stroke-linecap="square" stroke-miterlimit="10" xmlns="http://www.w3.org/2000/svg" xmlns:xlink="http://www.w3.org/1999/xlink"><clipPath id="p.0"><path d="m0 0l958.88715 0l0 389.8294l-958.88715 0l0 -389.8294z" clip-rule="nonzero"></path></clipPath><g clip-path="url(#p.0)"><path fill="#000000" fill-opacity="0.0" d="m0 0l958.88715 0l0 389.8294l-958.88715 0z" fill-rule="evenodd"></path><path fill="#ead1dc" d="m253.48148 223.65544l640.0 0l0 63.999985l-640.0 0z" fill-rule="evenodd"></path><path stroke="#a64d79" stroke-width="4.0" stroke-linejoin="round" stroke-linecap="butt" d="m253.48148 223.65544l640.0 0l0 63.999985l-640.0 0z" fill-rule="evenodd"></path><path fill="#000000" d="m578.2059 264.19543l-1.21875 -10.796875l-3.578125 7.40625l-3.578125 -7.40625l-1.21875 10.796875l-3.03125 0l2.109375 -16.796875l2.390625 0l3.328125 7.359375l3.34375 -7.359375l2.375 0l2.109375 16.796875l-3.03125 0z" fill-rule="nonzero"></path><path fill="#ead1dc" d="m253.48148 223.65544l128.0 0l0 63.999985l-128.0 0z" fill-rule="evenodd"></path><path stroke="#a64d79" stroke-width="4.0" stroke-linejoin="round" stroke-linecap="butt" d="m253.48148 223.65544l128.0 0l0 63.999985l-128.0 0z" fill-rule="evenodd"></path><path fill="#000000" d="m316.7099 264.19543l-1.21875 -10.796875l-3.578125 7.40625l-3.578125 -7.40625l-1.21875 10.796875l-3.03125 0l2.109375 -16.796875l2.390625 0l3.328125 7.359375l3.34375 -7.359375l2.375 0l2.109375 16.796875l-3.03125 0zm9.269928 -10.5625q2.15625 0 3.46875 1.390625q1.328125 1.390625 1.328125 3.8125q0 1.734375 -0.6875 3.015625q-0.6875 1.28125 -1.890625 1.96875q-1.1875 0.6875 -2.71875 0.6875q-2.09375 0 -3.78125 -0.953125l0.734375 -2.765625q1.390625 0.84375 2.75 0.84375q1.203125 0 1.90625 -0.71875q0.71875 -0.734375 0.71875 -1.953125q0 -1.3125 -0.765625 -2.0625q-0.75 -0.75 -2.171875 -0.75q-0.984375 0 -2.328125 0.34375l1.078125 -9.09375l6.484375 0l-0.1875 2.96875l-4.078125 0l-0.40625 3.296875q0.15625 -0.03125 0.546875 -0.03125z" fill-rule="nonzero"></path><path fill="#ead1dc" d="m381.48148 223.65544l128.0 0l0 63.999985l-128.0 0z" fill-rule="evenodd"></path><path stroke="#a64d79" stroke-width="4.0" stroke-linejoin="round" stroke-linecap="butt" d="m381.48148 223.65544l128.0 0l0 63.999985l-128.0 0z" fill-rule="evenodd"></path><path fill="#000000" d="m444.2059 264.19543l-1.21875 -10.796875l-3.578125 7.40625l-3.578125 -7.40625l-1.21875 10.796875l-3.03125 0l2.109375 -16.796875l2.390625 0l3.328125 7.359375l3.34375 -7.359375l2.375 0l2.109375 16.796875l-3.03125 0zm15.019928 -6.265625l0 2.421875l-1.4375 0l0 3.84375l-2.921875 0l0 -3.84375l-6.578125 0l7.515625 -12.953125l1.984375 0l0 10.53125l1.4375 0zm-4.359375 0l0 -4.625l-2.515625 4.625l2.515625 0z" fill-rule="nonzero"></path><path fill="#ead1dc" d="m509.48148 223.65544l128.00003 0l0 63.999985l-128.00003 0z" fill-rule="evenodd"></path><path stroke="#a64d79" stroke-width="4.0" stroke-linejoin="round" stroke-linecap="butt" d="m509.48148 223.65544l128.00003 0l0 63.999985l-128.00003 0z" fill-rule="evenodd"></path><path fill="#000000" d="m572.6859 264.19543l-1.21875 -10.796875l-3.578125 7.40625l-3.578125 -7.40625l-1.21875 10.796875l-3.03125 0l2.109375 -16.796875l2.390625 0l3.328125 7.359375l3.34375 -7.359375l2.375 0l2.109375 16.796875l-3.03125 0zm10.9887085 -8.90625q1.34375 0.453125 2.109375 1.53125q0.78125 1.0625 0.78125 2.59375q0 2.421875 -1.4375 3.78125q-1.421875 1.34375 -3.828125 1.34375q-2.296875 0 -4.0 -1.046875l0.734375 -2.578125q0.703125 0.5 1.40625 0.75q0.71875 0.234375 1.546875 0.234375q1.203125 0 1.875 -0.625q0.671875 -0.625 0.671875 -1.859375q0 -1.25 -0.703125 -1.890625q-0.6875 -0.640625 -1.953125 -0.640625l-0.75 0l0 -2.890625l0.71875 0q1.015625 0 1.546875 -0.578125q0.546875 -0.59375 0.546875 -1.671875q0 -0.9375 -0.53125 -1.484375q-0.53125 -0.5625 -1.484375 -0.5625q-1.28125 0 -2.625 0.796875l-0.453125 -2.609375q1.59375 -0.828125 3.65625 -0.828125q2.0625 0 3.25 1.1875q1.203125 1.171875 1.203125 3.109375q0 2.71875 -2.28125 3.9375z" fill-rule="nonzero"></path><path fill="#ead1dc" d="m637.4815 223.65544l128.0 0l0 63.999985l-128.0 0z" fill-rule="evenodd"></path><path stroke="#a64d79" stroke-width="4.0" stroke-linejoin="round" stroke-linecap="butt" d="m637.4815 223.65544l128.0 0l0 63.999985l-128.0 0z" fill-rule="evenodd"></path><path fill="#000000" d="m700.8059 264.19543l-1.21875 -10.796875l-3.578125 7.40625l-3.578125 -7.40625l-1.21875 10.796875l-3.03125 0l2.109375 -16.796875l2.390625 0l3.328125 7.359375l3.34375 -7.359375l2.375 0l2.109375 16.796875l-3.03125 0zm8.4262085 -6.28125q1.203125 -2.28125 1.625 -3.484375q0.4375 -1.21875 0.4375 -2.328125q0 -1.015625 -0.53125 -1.546875q-0.515625 -0.546875 -1.484375 -0.546875q-1.296875 0 -2.734375 1.15625l-0.328125 -2.875q1.84375 -1.234375 4.078125 -1.234375q1.96875 0 3.015625 1.296875q1.0625 1.296875 1.0625 3.25q0 1.5 -0.515625 3.0q-0.515625 1.5 -1.953125 4.21875l-1.34375 2.546875l4.125 0l0 2.828125l-8.734375 0l3.28125 -6.28125z" fill-rule="nonzero"></path><path fill="#ead1dc" d="m69.48148 223.65544l127.99999 0l0 63.999985l-127.99999 0z" fill-rule="evenodd"></path><path stroke="#a64d79" stroke-width="4.0" stroke-linejoin="round" stroke-linecap="butt" d="m69.48148 223.65544l127.99999 0l0 63.999985l-127.99999 0z" fill-rule="evenodd"></path><path fill="#000000" d="m132.5899 264.19543l-1.21875 -10.796875l-3.578125 7.40625l-3.578125 -7.40625l-1.21875 10.796875l-3.03125 0l2.109375 -16.796875l2.390625 0l3.328125 7.359375l3.34375 -7.359375l2.375 0l2.109375 16.796875l-3.03125 0zm10.269943 -10.109375q1.1875 0 2.140625 0.65625q0.96875 0.640625 1.5 1.828125q0.546875 1.171875 0.546875 2.640625q0 2.46875 -1.25 3.90625q-1.234375 1.421875 -3.4375 1.421875q-2.234375 0 -3.515625 -1.640625q-1.265625 -1.65625 -1.265625 -4.390625q0 -2.515625 0.90625 -4.8125q0.921875 -2.296875 2.3125 -4.0q1.390625 -1.703125 2.84375 -2.65625l2.078125 1.75q-1.625 1.15625 -2.875 2.53125q-1.25 1.359375 -1.875 3.15625q0.84375 -0.390625 1.890625 -0.390625zm-0.453125 7.859375q0.859375 0 1.34375 -0.734375q0.5 -0.734375 0.5 -1.9375q0 -1.171875 -0.5 -1.875q-0.484375 -0.71875 -1.34375 -0.71875q-0.890625 0 -1.375 0.703125q-0.46875 0.6875 -0.46875 1.890625q0 1.203125 0.46875 1.9375q0.484375 0.734375 1.375 0.734375z" fill-rule="nonzero"></path><path fill="#000000" fill-opacity="0.0" d="m133.48148 223.65544c0 -12.5 28.406204 -25.466675 52.29901 -25.0c23.892792 0.46665955 43.2722 14.366669 52.298996 28.5c9.026794 14.133331 7.701004 28.5 15.401993 28.5" fill-rule="evenodd"></path><path stroke="#000000" stroke-width="4.0" stroke-linejoin="round" stroke-linecap="butt" d="m133.48149 223.65543c0 -12.5 28.406189 -25.46666 52.298996 -25.0c23.892807 0.46669006 43.272186 14.366684 52.298996 28.5c1.1283417 1.7666779 2.0949402 3.5370026 2.937622 5.282425c0.21066284 0.43637085 0.41358948 0.87117004 0.609375 1.3039856c0.09786987 0.21640015 0.19396973 0.43229675 0.2883606 0.64764404l0.08276367 0.19178772" fill-rule="evenodd"></path><path fill="#000000" stroke="#000000" stroke-width="4.0" stroke-linecap="butt" d="m236.19612 237.74265l14.487305 12.778061l-2.8843384 -19.10083z" fill-rule="evenodd"></path><path fill="#000000" fill-opacity="0.0" d="m317.48148 223.65544l0 -72.0" fill-rule="evenodd"></path><path stroke="#000000" stroke-width="4.0" stroke-linejoin="round" stroke-linecap="butt" d="m317.48148 199.65543l0 -47.999985" fill-rule="evenodd"></path><path fill="#000000" stroke="#000000" stroke-width="4.0" stroke-linecap="butt" d="m310.87454 199.65543l6.6069336 18.15239l6.6069336 -18.15239z" fill-rule="evenodd"></path><path fill="#000000" fill-opacity="0.0" d="m829.4815 223.65544l0 -72.0" fill-rule="evenodd"></path><path stroke="#000000" stroke-width="4.0" stroke-linejoin="round" stroke-linecap="butt" d="m829.48145 199.65543l0 -47.999985" fill-rule="evenodd"></path><path fill="#000000" stroke="#000000" stroke-width="4.0" stroke-linecap="butt" d="m822.8745 199.65543l6.6069336 18.15239l6.6069336 -18.15239z" fill-rule="evenodd"></path><path fill="#000000" fill-opacity="0.0" d="m242.51852 102.17396l152.0 0l0 31.999992l-152.0 0z" fill-rule="evenodd"></path><path fill="#000000" d="m299.33884 125.89396q1.890625 0 3.28125 1.125q1.390625 1.1093674 2.125 2.9843674q0.734375 1.875 0.734375 4.046875q0 2.28125 -0.765625 4.15625q-0.765625 1.859375 -2.171875 2.9375q-1.390625 1.0625 -3.203125 1.0625q-1.28125 0 -2.390625 -0.46875q-1.109375 -0.484375 -1.84375 -1.375l-0.125 1.53125l-2.53125 0l0 -23.999992l2.796875 0l0 9.828125q1.65625 -1.828125 4.09375 -1.828125zm-0.484375 13.859367q1.703125 0 2.734375 -1.640625q1.046875 -1.65625 1.046875 -4.0625q0 -2.453125 -1.03125 -4.046875q-1.015625 -1.609375 -2.75 -1.609375q-1.734375 0 -2.8125 1.453125q-1.0625 1.453125 -1.0625 4.203125q0 2.859375 1.0625 4.28125q1.078125 1.421875 2.8125 1.421875zm12.603424 2.453125q-1.78125 0 -2.9375 -1.265625q-1.15625 -1.28125 -1.15625 -3.265625q0 -2.953125 2.46875 -4.25q2.46875 -1.296875 5.5 -1.359375q0 -2.046875 -0.609375 -2.84375q-0.609375 -0.796875 -2.046875 -0.796875q-1.859375 0 -3.78125 1.4375l-0.34375 -2.3437424q2.015625 -1.625 4.671875 -1.625q2.53125 0 3.734375 1.453125q1.21875 1.4531174 1.21875 4.6874924l0 4.578125q0 1.828125 0.25 2.578125q0.265625 0.75 1.125 0.75l0.359375 0l-0.359375 2.265625l-0.59375 0q-1.484375 0 -2.1875 -0.53125q-0.703125 -0.546875 -1.140625 -1.765625q-0.75 1.0625 -1.84375 1.6875q-1.078125 0.609375 -2.328125 0.609375zm0.875 -2.265625q0.765625 0 1.59375 -0.59375q0.828125 -0.59375 1.40625 -1.546875l0 -3.75q-2.46875 0.125 -3.75 0.953125q-1.265625 0.8125 -1.265625 2.5q0 2.4375 2.015625 2.4375zm16.216156 2.265625q-3.578125 0 -5.4375 -2.25q-1.859375 -2.25 -1.859375 -5.8125q0 -3.671875 1.859375 -5.953125q1.859375 -2.2968674 5.5 -2.2968674q1.953125 0 3.484375 0.796875l-0.4375 2.4687424q-1.4375 -0.765625 -3.015625 -0.765625q-2.140625 0 -3.34375 1.484375q-1.203125 1.484375 -1.203125 4.140625q0 2.65625 1.234375 4.203125q1.234375 1.53125 3.40625 1.53125q1.671875 0 2.953125 -0.765625l0.375 2.484375q-0.640625 0.328125 -1.59375 0.53125q-0.953125 0.203125 -1.921875 0.203125zm6.2106323 -24.312492l2.78125 0l0 15.421867l4.703125 -7.1093674l3.328125 0l-5.1875 7.2343674l5.28125 8.453125l-3.359375 0l-4.765625 -8.0l0 8.0l-2.78125 0l0 -23.999992z" fill-rule="nonzero"></path><path fill="#000000" fill-opacity="0.0" d="m754.5185 102.17396l152.0 0l0 31.999992l-152.0 0z" fill-rule="evenodd"></path><path fill="#000000" d="m803.9595 128.4252l-2.171875 0l0.3125 -2.2187424l1.859375 0l0 -4.1875q0 -1.859375 1.046875 -2.984375q1.0625 -1.140625 3.015625 -1.140625q1.1875 0 2.078125 0.359375l-0.34375 2.390625q-0.671875 -0.21875 -1.28125 -0.21875q-0.84375 0 -1.296875 0.53125q-0.4375 0.515625 -0.4375 1.484375l0 3.765625l3.453125 0l0 2.2187424l-3.453125 0l0 13.46875l-2.78125 0l0 -13.46875zm8.547119 -2.2187424l2.265625 0l0.359375 2.6249924q1.046875 -1.5312424 1.984375 -2.2343674q0.953125 -0.703125 2.015625 -0.703125q0.40625 0 0.734375 0.09375l-0.296875 3.1718674q-0.40625 -0.09375 -0.953125 -0.09375q-1.0625 0 -1.984375 0.53125q-0.921875 0.515625 -1.34375 1.21875l0 11.078125l-2.78125 0l0 -15.687492zm15.190002 15.999992q-2.109375 0 -3.640625 -1.0625q-1.53125 -1.078125 -2.359375 -2.921875q-0.8125 -1.859375 -0.8125 -4.171875q0 -2.296875 0.8125 -4.15625q0.828125 -1.859375 2.359375 -2.9218674q1.53125 -1.078125 3.640625 -1.078125q2.078125 0 3.609375 1.078125q1.546875 1.0624924 2.34375 2.9218674q0.8125 1.859375 0.8125 4.15625q0 2.3125 -0.8125 4.171875q-0.796875 1.84375 -2.34375 2.921875q-1.53125 1.0625 -3.609375 1.0625zm0 -2.453125q1.859375 0 2.875 -1.5q1.03125 -1.515625 1.03125 -4.203125q0 -2.6875 -1.03125 -4.171875q-1.015625 -1.484375 -2.875 -1.484375q-1.921875 0 -2.953125 1.484375q-1.015625 1.484375 -1.015625 4.171875q0 2.71875 1.015625 4.21875q1.03125 1.484375 2.953125 1.484375zm16.010315 -13.859367q2.421875 0 3.71875 1.90625q1.296875 1.9062424 1.296875 5.1406174l0 8.953125l-2.78125 0l0 -8.609375q0 -2.5 -0.71875 -3.6875q-0.71875 -1.203125 -2.15625 -1.203125q-1.0625 0 -1.96875 0.59375q-0.890625 0.59375 -1.484375 1.640625l0 11.265625l-2.796875 0l0 -15.687492l2.375 0l0.1875 1.9531174q0.671875 -1.0468674 1.8125 -1.6562424q1.140625 -0.609375 2.515625 -0.609375zm12.756531 16.312492q-1.8125 0 -2.703125 -1.078125q-0.875 -1.09375 -0.875 -2.65625l0 -10.046875l-2.171875 0l0.25 -2.2187424l1.921875 0l0 -3.859375l2.78125 -0.296875l0 4.15625l3.390625 0l0 2.2187424l-3.390625 0l0 8.921875q0 1.4375 0.53125 2.015625q0.53125 0.578125 1.84375 0.578125l0.984375 0l-0.25 2.265625l-2.3125 0z" fill-rule="nonzero"></path><path fill="#000000" fill-opacity="0.0" d="m53.48148 143.65544l152.0 0l0 32.0l-152.0 0z" fill-rule="evenodd"></path><path fill="#000000" d="m110.3018 167.37544q1.890625 0 3.28125 1.125q1.390625 1.109375 2.125 2.984375q0.734375 1.875 0.734375 4.046875q0 2.28125 -0.765625 4.15625q-0.765625 1.859375 -2.171875 2.9375q-1.390625 1.0625 -3.203125 1.0625q-1.28125 0 -2.390625 -0.46875q-1.109375 -0.484375 -1.84375 -1.375l-0.125 1.53125l-2.53125 0l0 -24.0l2.796875 0l0 9.828125q1.65625 -1.828125 4.09375 -1.828125zm-0.484375 13.859375q1.703125 0 2.734375 -1.640625q1.046875 -1.65625 1.046875 -4.0625q0 -2.453125 -1.03125 -4.046875q-1.015625 -1.609375 -2.75 -1.609375q-1.734375 0 -2.8125 1.453125q-1.0625 1.453125 -1.0625 4.203125q0 2.859375 1.0625 4.28125q1.078125 1.421875 2.8125 1.421875zm12.603409 2.453125q-1.78125 0 -2.9375 -1.265625q-1.15625 -1.28125 -1.15625 -3.265625q0 -2.953125 2.46875 -4.25q2.46875 -1.296875 5.5 -1.359375q0 -2.046875 -0.609375 -2.84375q-0.609375 -0.796875 -2.046875 -0.796875q-1.859375 0 -3.78125 1.4375l-0.34375 -2.34375q2.015625 -1.625 4.671875 -1.625q2.53125 0 3.734375 1.453125q1.21875 1.453125 1.21875 4.6875l0 4.578125q0 1.828125 0.25 2.578125q0.265625 0.75 1.125 0.75l0.359375 0l-0.359375 2.265625l-0.59375 0q-1.484375 0 -2.1875 -0.53125q-0.703125 -0.546875 -1.140625 -1.765625q-0.75 1.0625 -1.84375 1.6875q-1.078125 0.609375 -2.328125 0.609375zm0.875 -2.265625q0.765625 0 1.59375 -0.59375q0.828125 -0.59375 1.40625 -1.546875l0 -3.75q-2.46875 0.125 -3.75 0.953125q-1.265625 0.8125 -1.265625 2.5q0 2.4375 2.015625 2.4375zm16.216156 2.265625q-3.578125 0 -5.4375 -2.25q-1.859375 -2.25 -1.859375 -5.8125q0 -3.671875 1.859375 -5.953125q1.859375 -2.296875 5.5 -2.296875q1.953125 0 3.484375 0.796875l-0.4375 2.46875q-1.4375 -0.765625 -3.015625 -0.765625q-2.140625 0 -3.34375 1.484375q-1.203125 1.484375 -1.203125 4.140625q0 2.65625 1.234375 4.203125q1.234375 1.53125 3.40625 1.53125q1.671875 0 2.953125 -0.765625l0.375 2.484375q-0.640625 0.328125 -1.59375 0.53125q-0.953125 0.203125 -1.921875 0.203125zm6.2106476 -24.3125l2.78125 0l0 15.421875l4.703125 -7.109375l3.328125 0l-5.1875 7.234375l5.28125 8.453125l-3.359375 0l-4.765625 -8.0l0 8.0l-2.78125 0l0 -24.0z" fill-rule="nonzero"></path><path fill="#ead1dc" d="m765.4815 223.65544l128.0 0l0 63.999985l-128.0 0z" fill-rule="evenodd"></path><path stroke="#a64d79" stroke-width="4.0" stroke-linejoin="round" stroke-linecap="butt" d="m765.4815 223.65544l128.0 0l0 63.999985l-128.0 0z" fill-rule="evenodd"></path><path fill="#000000" d="m830.1859 264.19543l-1.21875 -10.796875l-3.578125 7.40625l-3.578125 -7.40625l-1.21875 10.796875l-3.03125 0l2.109375 -16.796875l2.390625 0l3.328125 7.359375l3.34375 -7.359375l2.375 0l2.109375 16.796875l-3.03125 0zm6.9417725 -12.453125q-0.796875 0.640625 -1.75 0.859375l-0.203125 -2.59375q0.84375 -0.265625 1.609375 -1.0q0.78125 -0.75 1.0625 -1.609375l2.203125 0l0 16.796875l-2.921875 0l0 -12.453125z" fill-rule="nonzero"></path></g></svg>

