<?xml version="1.0" standalone="yes"?>

<svg version="1.1" viewBox="0.0 0.0 960.0 720.0" fill="none" stroke="none" stroke-linecap="square" stroke-miterlimit="10" xmlns="http://www.w3.org/2000/svg" xmlns:xlink="http://www.w3.org/1999/xlink"><clipPath id="p.0"><path d="m0 0l960.0 0l0 720.0l-960.0 0l0 -720.0z" clip-rule="nonzero"></path></clipPath><g clip-path="url(#p.0)"><path fill="#000000" fill-opacity="0.0" d="m0 0l960.0 0l0 720.0l-960.0 0z" fill-rule="evenodd"></path><path fill="#ead1dc" d="m408.0 88.0l128.0 0l0 112.0l-128.0 0z" fill-rule="evenodd"></path><path stroke="#a64d79" stroke-width="4.0" stroke-linejoin="round" stroke-linecap="butt" d="m408.0 88.0l128.0 0l0 112.0l-128.0 0z" fill-rule="evenodd"></path><path fill="#ead1dc" d="m408.0 488.0l128.0 0l0 112.0l-128.0 0z" fill-rule="evenodd"></path><path stroke="#a64d79" stroke-width="4.0" stroke-linejoin="round" stroke-linecap="butt" d="m408.0 488.0l128.0 0l0 112.0l-128.0 0z" fill-rule="evenodd"></path><path fill="#ead1dc" d="m568.0 488.0l128.0 0l0 112.0l-128.0 0z" fill-rule="evenodd"></path><path stroke="#a64d79" stroke-width="4.0" stroke-linejoin="round" stroke-linecap="butt" d="m568.0 488.0l128.0 0l0 112.0l-128.0 0z" fill-rule="evenodd"></path><path fill="#ead1dc" d="m728.0 488.0l128.0 0l0 112.0l-128.0 0z" fill-rule="evenodd"></path><path stroke="#a64d79" stroke-width="4.0" stroke-linejoin="round" stroke-linecap="butt" d="m728.0 488.0l128.0 0l0 112.0l-128.0 0z" fill-rule="evenodd"></path><path fill="#ead1dc" d="m248.0 488.0l128.0 0l0 112.0l-128.0 0z" fill-rule="evenodd"></path><path stroke="#a64d79" stroke-width="4.0" stroke-linejoin="round" stroke-linecap="butt" d="m248.0 488.0l128.0 0l0 112.0l-128.0 0z" fill-rule="evenodd"></path><path fill="#ead1dc" d="m88.0 488.0l128.0 0l0 112.0l-128.0 0z" fill-rule="evenodd"></path><path stroke="#a64d79" stroke-width="4.0" stroke-linejoin="round" stroke-linecap="butt" d="m88.0 488.0l128.0 0l0 112.0l-128.0 0z" fill-rule="evenodd"></path></g></svg>

