<?xml version="1.0" standalone="yes"?>

<svg version="1.1" viewBox="0.0 0.0 960.0 720.0" fill="none" stroke="none" stroke-linecap="square" stroke-miterlimit="10" xmlns="http://www.w3.org/2000/svg" xmlns:xlink="http://www.w3.org/1999/xlink"><clipPath id="p.0"><path d="m0 0l960.0 0l0 720.0l-960.0 0l0 -720.0z" clip-rule="nonzero"></path></clipPath><g clip-path="url(#p.0)"><path fill="#000000" fill-opacity="0.0" d="m0 0l960.0 0l0 720.0l-960.0 0z" fill-rule="evenodd"></path><path fill="#f4cccc" d="m324.0 300.0l296.0 0l0 120.0l-296.0 0z" fill-rule="evenodd"></path><path stroke="#e06666" stroke-width="4.0" stroke-linejoin="round" stroke-linecap="butt" d="m324.0 300.0l296.0 0l0 120.0l-296.0 0z" fill-rule="evenodd"></path><path fill="#000000" d="m411.55316 346.4l7.203125 0q4.40625 0 6.859375 2.328125q2.46875 2.3125 2.46875 6.75q0 4.4375 -2.46875 6.78125q-2.453125 2.34375 -6.859375 2.34375l-3.515625 0l0 9.796875l-3.6875 0l0 -28.0zm6.890625 14.84375q5.84375 0 5.84375 -5.765625q0 -5.765625 -5.84375 -5.765625l-3.203125 0l0 11.53125l3.203125 0zm12.637512 -6.4375l2.84375 0l0.4375 3.28125q1.3125 -1.921875 2.484375 -2.796875q1.1875 -0.890625 2.515625 -0.890625q0.515625 0 0.921875 0.125l-0.359375 3.953125q-0.53125 -0.125 -1.203125 -0.125q-1.328125 0 -2.484375 0.671875q-1.15625 0.65625 -1.671875 1.53125l0 13.84375l-3.484375 0l0 -19.59375zm19.003113 20.0q-2.640625 0 -4.5625 -1.34375q-1.921875 -1.34375 -2.953125 -3.65625q-1.015625 -2.328125 -1.015625 -5.203125q0 -2.890625 1.015625 -5.203125q1.03125 -2.3125 2.953125 -3.65625q1.921875 -1.34375 4.5625 -1.34375q2.59375 0 4.515625 1.34375q1.921875 1.34375 2.921875 3.65625q1.0 2.3125 1.0 5.203125q0 2.875 -1.0 5.203125q-1.0 2.3125 -2.921875 3.65625q-1.921875 1.34375 -4.515625 1.34375zm0 -3.09375q2.3125 0 3.59375 -1.875q1.28125 -1.875 1.28125 -5.234375q0 -3.359375 -1.28125 -5.21875q-1.28125 -1.859375 -3.59375 -1.859375q-2.40625 0 -3.6875 1.859375q-1.28125 1.859375 -1.28125 5.21875q0 3.390625 1.28125 5.25q1.28125 1.859375 3.6875 1.859375zm18.0831 12.6875q-3.484375 0 -5.671875 -1.421875q-2.171875 -1.421875 -2.171875 -3.890625q0 -2.84375 3.109375 -4.96875q-1.828125 -0.875 -1.828125 -2.671875q0 -0.921875 0.546875 -1.625q0.5625 -0.703125 1.609375 -1.109375q-1.484375 -1.03125 -2.28125 -2.78125q-0.796875 -1.765625 -0.796875 -3.890625q0 -2.15625 0.828125 -3.890625q0.84375 -1.75 2.421875 -2.75q1.59375 -1.0 3.703125 -1.0q2.5625 0 4.328125 1.4375q1.5625 -1.4375 3.3125 -1.4375q0.515625 0 1.0 0.078125l-0.359375 2.796875q-0.390625 -0.078125 -0.796875 -0.078125q-0.84375 0 -1.6875 0.359375q1.171875 1.890625 1.171875 4.484375q0 2.15625 -0.84375 3.9375q-0.84375 1.78125 -2.421875 2.84375q-1.578125 1.0625 -3.703125 1.0625q-1.109375 0 -2.0 -0.28125q-0.75 0.3125 -0.75 0.921875q0 0.515625 0.515625 0.8125q0.515625 0.296875 1.84375 0.703125l2.75 0.84375q2.484375 0.75 3.90625 1.5q1.421875 0.734375 2.09375 1.75q0.6875 1.03125 0.6875 2.546875q0 2.71875 -2.359375 4.21875q-2.359375 1.5 -6.15625 1.5zm-0.53125 -17.28125q1.71875 0 2.671875 -1.375q0.96875 -1.390625 0.96875 -3.65625q0 -2.171875 -0.96875 -3.53125q-0.953125 -1.359375 -2.671875 -1.359375q-1.71875 0 -2.6875 1.34375q-0.953125 1.34375 -0.953125 3.546875q0 2.265625 0.953125 3.65625q0.96875 1.375 2.6875 1.375zm0.765625 14.4375q2.15625 0 3.453125 -0.6875q1.3125 -0.671875 1.3125 -1.984375q0 -1.078125 -0.8125 -1.703125q-0.796875 -0.625 -2.921875 -1.265625l-3.1875 -0.953125q-2.71875 1.71875 -2.71875 3.59375q0 1.484375 1.296875 2.234375q1.296875 0.765625 3.578125 0.765625zm10.319366 -26.75l2.84375 0l0.4375 3.28125q1.3125 -1.921875 2.484375 -2.796875q1.1875 -0.890625 2.515625 -0.890625q0.515625 0 0.921875 0.125l-0.359375 3.953125q-0.53125 -0.125 -1.203125 -0.125q-1.328125 0 -2.484375 0.671875q-1.15625 0.65625 -1.671875 1.53125l0 13.84375l-3.484375 0l0 -19.59375zm15.596863 20.0q-2.234375 0 -3.6875 -1.59375q-1.4375 -1.609375 -1.4375 -4.09375q0 -3.671875 3.078125 -5.296875q3.09375 -1.625 6.890625 -1.703125q0 -2.5625 -0.765625 -3.5625q-0.75 -1.0 -2.5625 -1.0q-2.3125 0 -4.71875 1.796875l-0.4375 -2.90625q2.515625 -2.046875 5.84375 -2.046875q3.15625 0 4.671875 1.828125q1.53125 1.8125 1.53125 5.859375l0 5.71875q0 2.28125 0.3125 3.21875q0.328125 0.9375 1.40625 0.9375l0.4375 0l-0.4375 2.84375l-0.765625 0q-1.84375 0 -2.71875 -0.671875q-0.875 -0.6875 -1.4375 -2.21875q-0.921875 1.328125 -2.28125 2.109375q-1.359375 0.78125 -2.921875 0.78125zm1.078125 -2.84375q0.96875 0 2.0 -0.734375q1.046875 -0.75 1.765625 -1.953125l0 -4.671875q-3.078125 0.15625 -4.6875 1.1875q-1.59375 1.015625 -1.59375 3.125q0 3.046875 2.515625 3.046875zm31.797485 -17.5625q6.484375 0 6.484375 8.796875l0 11.203125l-3.484375 0l0 -10.765625q0 -3.1875 -0.859375 -4.609375q-0.859375 -1.421875 -2.890625 -1.421875q-1.96875 0 -3.015625 1.4375q-1.03125 1.4375 -1.03125 4.15625l0 11.203125l-3.484375 0l0 -10.765625q0 -3.078125 -0.859375 -4.546875q-0.859375 -1.484375 -2.65625 -1.484375q-1.3125 0 -2.4375 0.71875q-1.125 0.71875 -1.875 2.0l0 14.078125l-3.484375 0l0 -19.59375l2.875 0l0.28125 2.46875q0.84375 -1.3125 2.28125 -2.09375q1.4375 -0.78125 3.15625 -0.78125q1.8125 0 3.109375 0.859375q1.296875 0.859375 2.0625 2.453125q0.75 -1.546875 2.25 -2.421875q1.5 -0.890625 3.578125 -0.890625z" fill-rule="nonzero"></path><defs><linearGradient id="p.1" gradientUnits="userSpaceOnUse" gradientTransform="matrix(10.825790138377657 0.0 0.0 10.825790138377657 0.0 0.0)" spreadMethod="pad" x1="5.542320628154311" y1="27.711521693993948" x2="5.5422813253488385" y2="38.53731183230026"><stop offset="0.0" stop-color="#fdecdb"></stop><stop offset="1.0" stop-color="#f0a963"></stop></linearGradient></defs><path fill="url(#p.1)" d="m60.0 329.29922l189.40158 0l0 -29.299225l58.59842 58.59842l-58.59842 58.59842l0 -29.299194l-189.40158 0z" fill-rule="evenodd"></path><defs><linearGradient id="p.2" gradientUnits="userSpaceOnUse" gradientTransform="matrix(10.825791085430637 0.0 0.0 10.825791085430637 0.0 0.0)" spreadMethod="pad" x1="60.22654555725377" y1="27.969279357212812" x2="60.226507675034945" y2="38.79507044257717"><stop offset="0.0" stop-color="#d4e5f5"></stop><stop offset="1.0" stop-color="#70a4d5"></stop></linearGradient></defs><path fill="url(#p.2)" d="m652.0 332.0897l189.40155 0l0 -29.299225l58.59845 58.59842l-58.59845 58.59845l0 -29.299225l-189.40155 0z" fill-rule="evenodd"></path></g></svg>

